<?xml version="1.0" encoding="utf-8"?>
<!-- Generator: Adobe Illustrator 20.0.0, SVG Export Plug-In . SVG Version: 6.00 Build 0)  -->
<svg version="1.1" id="Layer_1" xmlns="http://www.w3.org/2000/svg" xmlns:xlink="http://www.w3.org/1999/xlink" x="0px" y="0px"
	 viewBox="0 0 57.392 57.392" style="enable-background:new 0 0 57.392 57.392;" xml:space="preserve">
<style type="text/css">
	.st0{fill:#F4F7F9;}
	.st1{opacity:0.3;fill:#190A0C;}
	.st2{fill:#FF2634;}
	.st3{fill:none;stroke:#FF2634;stroke-width:2;stroke-miterlimit:10;}
	.st4{fill:none;stroke:#FF2634;stroke-width:8;stroke-miterlimit:10;}
	.st5{fill:url(#SVGID_5_);}
	.st6{fill:#FFFFFF;}
	.st7{fill:#000111;}
	.st8{fill:none;}
	.st9{fill:#999999;}
	.st10{fill:none;stroke:#999999;stroke-miterlimit:10;}
	.st11{fill:#FF341F;}
	.st12{fill:#FF3C00;}
	.st13{fill:none;stroke:#000111;stroke-width:3;stroke-miterlimit:10;}
	.st14{fill:#808080;}
	.st15{fill:none;stroke:#000111;stroke-width:2;stroke-miterlimit:10;}
</style>
<g>
	<path class="st2" d="M28.696,57.392C12.873,57.392,0,44.519,0,28.696C0,12.873,12.873,0,28.696,0s28.696,12.873,28.696,28.696
		C57.392,44.519,44.519,57.392,28.696,57.392z M28.696,2C13.976,2,2,13.976,2,28.696c0,14.72,11.976,26.695,26.696,26.695
		s26.696-11.976,26.696-26.695C55.392,13.976,43.416,2,28.696,2z"/>
	<polygon class="st2" points="28.696,39.548 14.412,25.264 15.826,23.85 28.696,36.72 41.566,23.85 42.98,25.264 	"/>
</g>
</svg>
