<?xml version="1.0" encoding="utf-8"?>
<!-- Generator: Adobe Illustrator 20.0.0, SVG Export Plug-In . SVG Version: 6.00 Build 0)  -->
<svg version="1.1" id="Layer_1" xmlns="http://www.w3.org/2000/svg" xmlns:xlink="http://www.w3.org/1999/xlink" x="0px" y="0px"
	 viewBox="0 0 20 27" style="enable-background:new 0 0 20 27;" xml:space="preserve">
<style type="text/css">
	.st0{fill:#F2F5F7;}
	.st1{clip-path:url(#SVGID_6_);}
	.st2{fill:#E7EBEF;}
	.st3{fill:#F0F0F0;}
	.st4{fill:#000111;}
	.st5{opacity:0.3;fill:#190A0C;}
	.st6{fill:#FF2634;}
	.st7{fill:none;stroke:#FF2634;stroke-width:2;stroke-miterlimit:10;}
	.st8{fill:none;stroke:#FF2634;stroke-width:8;stroke-miterlimit:10;}
	.st9{fill:url(#SVGID_11_);}
	.st10{fill:#FFFFFF;}
	.st11{fill:none;}
	.st12{fill:#979797;}
	.st13{fill:none;stroke:#979797;stroke-miterlimit:10;}
	.st14{fill:#FF341F;}
	.st15{fill:#E20000;}
	.st16{fill:none;stroke:#000111;stroke-width:3;stroke-miterlimit:10;}
	.st17{fill:#E20016;}
	.st18{fill:#2B2D38;}
	.st19{fill:#0E182D;}
	.st20{fill:#CACACA;}
	.st21{fill:#808080;}
	.st22{fill:none;stroke:#000111;stroke-width:2;stroke-miterlimit:10;}
	.st23{fill:#EFF0F1;}
	.st24{fill:none;stroke:#FFFFFF;stroke-width:2;stroke-miterlimit:10;}
	.st25{opacity:0.65;fill:#000111;}
	.st26{opacity:0.8;fill:url(#);}
	.st27{fill:#79818E;}
	.st28{fill:#3A3F49;}
	.st29{fill:none;stroke:#CACACA;stroke-miterlimit:10;}
	.st30{fill:url(#);}
	.st31{clip-path:url(#SVGID_17_);}
	.st32{clip-path:url(#SVGID_19_);}
	.st33{clip-path:url(#SVGID_21_);}
	.st34{clip-path:url(#SVGID_23_);}
	.st35{clip-path:url(#SVGID_25_);}
	.st36{clip-path:url(#SVGID_27_);}
	.st37{clip-path:url(#SVGID_29_);}
	.st38{clip-path:url(#SVGID_31_);}
	.st39{clip-path:url(#SVGID_33_);}
	.st40{clip-path:url(#SVGID_35_);}
	.st41{clip-path:url(#SVGID_37_);}
	.st42{clip-path:url(#SVGID_39_);}
	.st43{fill:#4D5460;}
</style>
<g>
	<path class="st19" d="M19.896,8.368c-0.07-0.092-0.161-0.147-0.274-0.165L17.24,7.835c-0.13-0.421-0.308-0.851-0.534-1.29
		c0.156-0.219,0.39-0.529,0.702-0.929c0.313-0.399,0.534-0.691,0.664-0.875c0.069-0.097,0.104-0.197,0.104-0.303
		c0-0.123-0.03-0.219-0.091-0.29c-0.313-0.448-1.028-1.194-2.148-2.239c-0.104-0.087-0.213-0.131-0.325-0.131
		c-0.13,0-0.235,0.039-0.313,0.118L13.45,3.305c-0.356-0.185-0.747-0.347-1.172-0.488l-0.364-2.422
		c-0.009-0.114-0.059-0.209-0.15-0.283C11.673,0.037,11.567,0,11.445,0H8.554C8.303,0,8.146,0.123,8.086,0.368
		C7.973,0.807,7.847,1.624,7.708,2.817C7.3,2.95,6.905,3.116,6.523,3.318L4.727,1.909C4.614,1.821,4.501,1.778,4.388,1.778
		c-0.191,0-0.601,0.313-1.231,0.941C2.528,3.347,2.101,3.819,1.875,4.134C1.797,4.249,1.758,4.35,1.758,4.437
		c0,0.106,0.043,0.211,0.129,0.316C2.47,5.464,2.934,6.07,3.281,6.571C3.065,6.975,2.895,7.379,2.773,7.782L0.352,8.15
		C0.256,8.168,0.174,8.225,0.104,8.322C0.034,8.419,0,8.52,0,8.625v2.923c0,0.115,0.034,0.217,0.104,0.309
		c0.07,0.092,0.16,0.147,0.273,0.165l2.383,0.356c0.121,0.43,0.299,0.864,0.534,1.303c-0.157,0.219-0.391,0.529-0.703,0.928
		c-0.313,0.4-0.535,0.691-0.664,0.876c-0.069,0.097-0.104,0.197-0.104,0.303c0,0.114,0.03,0.215,0.091,0.302
		c0.339,0.474,1.054,1.212,2.148,2.213c0.095,0.096,0.204,0.144,0.325,0.144c0.13,0,0.239-0.04,0.325-0.118L6.55,16.92
		c0.356,0.184,0.747,0.346,1.172,0.487l0.365,2.423c0.009,0.115,0.059,0.209,0.15,0.283c0.091,0.075,0.197,0.112,0.319,0.112h2.891
		c0.252,0,0.408-0.123,0.469-0.368c0.112-0.44,0.239-1.256,0.378-2.449c0.407-0.132,0.803-0.298,1.185-0.5l1.797,1.422
		c0.121,0.079,0.234,0.118,0.339,0.118c0.19,0,0.599-0.311,1.224-0.934c0.625-0.623,1.054-1.098,1.289-1.423
		c0.079-0.088,0.118-0.189,0.118-0.302c0-0.115-0.044-0.224-0.13-0.329c-0.625-0.773-1.089-1.379-1.394-1.817
		c0.174-0.325,0.343-0.724,0.508-1.198l2.409-0.368c0.104-0.018,0.191-0.075,0.261-0.171C19.966,11.806,20,11.705,20,11.6V8.677
		C20,8.563,19.966,8.46,19.896,8.368L19.896,8.368z M12.357,12.496c-0.651,0.658-1.437,0.987-2.357,0.987
		c-0.92,0-1.706-0.329-2.357-0.987c-0.652-0.659-0.977-1.453-0.977-2.383c0-0.931,0.325-1.725,0.977-2.384
		C8.295,7.071,9.08,6.742,10,6.742c0.92,0,1.706,0.329,2.357,0.987c0.651,0.659,0.976,1.453,0.976,2.384
		C13.333,11.043,13.008,11.837,12.357,12.496L12.357,12.496z M12.357,12.496"/>
</g>
</svg>
