<?xml version="1.0" encoding="utf-8"?>
<!-- Generator: Adobe Illustrator 20.0.0, SVG Export Plug-In . SVG Version: 6.00 Build 0)  -->
<svg version="1.1" id="Layer_1" xmlns="http://www.w3.org/2000/svg" xmlns:xlink="http://www.w3.org/1999/xlink" x="0px" y="0px"
	 viewBox="0 0 20 27" style="enable-background:new 0 0 20 27;" xml:space="preserve">
<style type="text/css">
	.st0{fill:#0E182D;stroke:#0E182D;stroke-width:0.75;stroke-miterlimit:10;}
	.st1{fill:#0E182D;}
</style>
<path class="st0" d="M19.14,4.783c0,0.274-0.104,0.547-0.313,0.756c-0.418,0.418-1.095,0.418-1.513,0
	c-1.953-1.953-4.549-3.029-7.311-3.029c-2.762,0-5.358,1.075-7.311,3.029c-0.418,0.418-1.095,0.418-1.513,0
	c-0.418-0.418-0.418-1.095,0-1.513C3.536,1.67,6.67,0.371,10.003,0.371c3.333,0,6.467,1.298,8.824,3.655
	C19.036,4.235,19.14,4.509,19.14,4.783L19.14,4.783z"/>
<path class="st0" d="M17.123,9.582c0,0.274-0.104,0.548-0.313,0.756c-0.418,0.418-1.095,0.418-1.513,0
	c-2.919-2.919-7.669-2.919-10.589,0c-0.418,0.418-1.095,0.418-1.513,0c-0.418-0.418-0.418-1.095,0-1.513
	c1.818-1.818,4.236-2.82,6.807-2.82c2.571,0,4.989,1.001,6.807,2.82C17.019,9.035,17.123,9.309,17.123,9.582L17.123,9.582z"/>
<path class="st0" d="M15.106,14.382c0,0.274-0.104,0.548-0.313,0.756c-0.418,0.418-1.095,0.418-1.513,0
	c-1.807-1.807-4.748-1.807-6.555,0c-0.418,0.418-1.095,0.418-1.513,0c-0.418-0.418-0.418-1.095,0-1.513
	c2.641-2.641,6.939-2.641,9.58,0C15.002,13.835,15.106,14.108,15.106,14.382L15.106,14.382z"/>
<path class="st1" d="M0.329,18.521c-0.572-0.542-0.378-0.986,0.431-0.986l18.451,0c0.809,0,1.003,0.444,0.431,0.986l-5.378,5.098
	l0,3.38l-8.557,0l0-3.38L0.329,18.521z"/>
<path class="st1" d="M0.329,16.15"/>
</svg>
