<?xml version="1.0" encoding="utf-8"?>
<!-- Generator: Adobe Illustrator 20.0.0, SVG Export Plug-In . SVG Version: 6.00 Build 0)  -->
<svg version="1.1" id="Layer_1" xmlns="http://www.w3.org/2000/svg" xmlns:xlink="http://www.w3.org/1999/xlink" x="0px" y="0px"
	 viewBox="0 0 20 30.757" style="enable-background:new 0 0 20 30.757;" xml:space="preserve">
<style type="text/css">
	.st0{fill-rule:evenodd;clip-rule:evenodd;fill:#0E182D;}
</style>
<g>
	<path class="st0" d="M18.26,22.881h-2.618v-2.574c0-1.448-1.17-2.618-2.612-2.618h-1.285v-7.535
		c2.025-0.719,3.485-2.651,3.485-4.923C15.23,2.344,12.886,0,10,0C7.12,0,4.77,2.344,4.77,5.23c0,2.273,1.46,4.204,3.491,4.923
		v7.535H6.97c-1.442,0-2.612,1.17-2.612,2.618v2.574H1.745C0.783,22.881,0,23.664,0,24.626v4.386c0,0.962,0.783,1.745,1.745,1.745
		H18.26c0.962,0,1.74-0.783,1.74-1.745v-4.386C20,23.66,19.222,22.881,18.26,22.881L18.26,22.881z M7.388,5.23
		c0-1.442,1.17-2.618,2.612-2.618c1.442,0,2.618,1.176,2.618,2.618c0,1.442-1.175,2.612-2.618,2.612
		C8.558,7.843,7.388,6.673,7.388,5.23L7.388,5.23z M6.97,20.306h6.06v2.574H6.97V20.306z M17.388,28.14H2.612v-2.641h14.775V28.14z
		 M17.388,28.14"/>
</g>
</svg>
