<?xml version="1.0" encoding="utf-8"?>
<!-- Generator: Adobe Illustrator 20.0.0, SVG Export Plug-In . SVG Version: 6.00 Build 0)  -->
<svg version="1.1" id="Layer_1" xmlns="http://www.w3.org/2000/svg" xmlns:xlink="http://www.w3.org/1999/xlink" x="0px" y="0px"
	 viewBox="0 0 55.508 55.508" style="enable-background:new 0 0 55.508 55.508;" xml:space="preserve">
<style type="text/css">
	.st0{fill:#F4F7F9;}
	.st1{opacity:0.3;fill:#190A0C;}
	.st2{fill:#FF2634;}
	.st3{fill:none;stroke:#FF2634;stroke-width:2;stroke-miterlimit:10;}
	.st4{fill:none;stroke:#FF2634;stroke-width:8;stroke-miterlimit:10;}
	.st5{fill:url(#SVGID_5_);}
	.st6{fill:#FFFFFF;}
	.st7{fill:#000111;}
	.st8{fill:none;}
	.st9{fill:#999999;}
	.st10{fill:none;stroke:#999999;stroke-miterlimit:10;}
	.st11{fill:#FF341F;}
	.st12{fill:#FF3C00;}
	.st13{fill:none;stroke:#000111;stroke-width:3;stroke-miterlimit:10;}
	.st14{fill:#808080;}
	.st15{fill:none;stroke:#000111;stroke-width:2;stroke-miterlimit:10;}
</style>
<g>
	<path class="st2" d="M40.067,27.491c-0.428,3.961-1.005,7.032-1.445,9.197c0.747,0.155,1.333,0.071,1.764-0.276
		c0.939-0.76,1.319-2.87,1.016-5.645C41.27,29.566,40.713,28.259,40.067,27.491z"/>
	<path class="st2" d="M36.246,20.107c0-0.995,0-2.412,0-3.653c-0.597-0.176-1.446-1.037-1.446-2.08c0-0.096,0.316-0.188,0.328-0.28
		c-0.01,0-0.019,0.003-0.028,0.003c-0.677,0-1.29-0.247-1.777-0.643c-0.506,0.328-1.107,0.522-1.755,0.522
		c-0.778,0-1.482-0.285-2.041-0.742c-0.223-0.036-0.448,0.002-0.638,0.122c-0.206,0.13-0.348,0.334-0.402,0.571
		c-0.111,0.495,0.206,0.99,0.705,1.103c0.278,0.064,0.564-0.003,0.786-0.18c0.287-0.232,0.707-0.185,0.938,0.103
		c0.231,0.288,0.184,0.707-0.104,0.938c-0.406,0.326-0.902,0.498-1.411,0.498c-0.167,0-0.336-0.018-0.503-0.056
		c-1.216-0.274-1.985-1.483-1.714-2.696c0.007-0.033,0.023-0.063,0.031-0.095c-0.006,0-0.011,0.002-0.016,0.002
		c-0.235,0-0.464-0.026-0.686-0.069c0.041,0.226,0.044,0.454-0.022,0.672c-0.218,0.716-0.59,1.211-1.107,1.47
		c-0.557,0.28-1.226,0.272-2.045-0.024c-0.448-0.162-0.782-0.471-1.008-0.857c-0.13,0.297-0.244,0.632-0.341,1.003
		c-0.334,1.275,0.407,1.678,0.74,1.791c0.578,0.195,1.336,0.027,1.602-0.599c0.143-0.339,0.536-0.5,0.877-0.354
		c0.34,0.144,0.501,0.535,0.357,0.875c-0.43,1.014-1.406,1.487-2.36,1.487c-0.308,0-0.6-0.049-0.883-0.146
		c-1.137-0.387-2.048-1.587-1.575-3.393c0.093-0.355,0.25-0.667,0.365-0.956c-0.321-0.048-0.521-0.154-0.805-0.288
		c-0.202,0.782-1.369,1.396-1.369,1.628c0,1.369,0,3.143,0,4.324c-1.194,0.29-1.754,1.128-2.412,2.479
		c0.495,7.38,1.477,12.458,2.119,15.333l0.106,0.451c0.689,3.099,2.29,7.603,3.704,9.248c1.333,1.552,3.049,2.448,4.241,2.594
		v-1.819c0-0.382,0.514-0.691,0.895-0.691c0.381,0,0.895,0.309,0.895,0.691v1.809c0.68-0.122,3.2-0.78,4.685-2.538
		c1.303-1.543,2.902-5.766,3.639-9.4l0.169-0.831c0.625-3.018,1.531-7.812,1.943-14.749C38.252,21.272,37.44,20.404,36.246,20.107z
		 M26.929,28.223c0.056-0.257,0.097-0.497,0.121-0.714c0.01-0.092,0.039-0.177,0.081-0.253c0.128-0.227,0.383-0.369,0.657-0.337
		c0.366,0.041,0.63,0.371,0.589,0.738c-0.028,0.249-0.074,0.522-0.135,0.81c-0.368,1.731-1.286,4.043-2.163,5.445
		c-0.146,0.234-0.291,0.442-0.432,0.619c-0.198,0.247-0.192,0.358-0.192,0.359c0.005,0.015,0.021,0.036,0.048,0.061
		c0.055,0.05,0.16,0.116,0.33,0.185c0.085,0.035,0.187,0.07,0.307,0.104c0.36,0.103,0.887,0.198,1.638,0.239
		c0.25,0.014,0.525,0.021,0.827,0.021c0.092,0,0.18,0.019,0.26,0.053c0.24,0.101,0.408,0.339,0.408,0.615
		c0,0.184-0.075,0.351-0.196,0.472c-0.121,0.121-0.288,0.196-0.472,0.196c-0.92,0-1.701-0.065-2.341-0.193
		c-0.64-0.129-1.138-0.321-1.494-0.577c-0.237-0.171-0.41-0.369-0.519-0.596c-0.114-0.237-0.19-0.567-0.08-0.97
		c0.066-0.242,0.2-0.511,0.433-0.802c0.121-0.152,0.248-0.335,0.376-0.543c0.257-0.416,0.522-0.931,0.774-1.49
		C26.257,30.545,26.707,29.251,26.929,28.223z M19.485,25.958c-0.131,0.169-0.329,0.258-0.527,0.258h0
		c-0.072,0-0.144-0.011-0.213-0.035c-0.069-0.023-0.136-0.059-0.197-0.106c-0.218-0.17-0.302-0.448-0.235-0.699
		c0.022-0.084,0.062-0.165,0.118-0.237c0.171-0.22,0.39-0.445,0.646-0.66c0.64-0.538,1.514-1.011,2.463-1.174
		c0.19-0.033,0.383-0.053,0.577-0.058c0.669-0.018,1.201-0.014,1.752,0.077c0.551,0.091,1.12,0.268,1.863,0.598
		c0.084,0.038,0.157,0.09,0.216,0.154c0.178,0.19,0.235,0.475,0.123,0.728c-0.113,0.252-0.362,0.4-0.622,0.396
		c-0.087-0.001-0.175-0.02-0.259-0.057c-0.157-0.07-0.303-0.132-0.441-0.186c-0.829-0.327-1.369-0.394-2.168-0.385
		c-0.133,0.002-0.274,0.005-0.424,0.011C21.093,24.612,19.986,25.314,19.485,25.958z M22.319,28.972
		c-0.671,0-1.231-0.476-1.361-1.109c-0.018-0.09-0.028-0.184-0.028-0.28c0-0.767,0.622-1.389,1.389-1.389s1.389,0.622,1.389,1.389
		c0,0.096-0.01,0.189-0.028,0.28C23.55,28.496,22.99,28.972,22.319,28.972z M30.065,45.169c-0.063,0.055-0.134,0.096-0.208,0.123
		c-0.074,0.027-0.152,0.041-0.23,0.041h0c-0.187,0-0.372-0.077-0.504-0.229c-0.184-0.211-0.407-0.37-0.649-0.475
		c-0.364-0.159-0.771-0.198-1.156-0.119c-0.385,0.079-0.749,0.277-1.024,0.595c-0.121,0.14-0.287,0.216-0.457,0.228
		c-0.171,0.012-0.346-0.042-0.485-0.162c-0.139-0.121-0.216-0.287-0.228-0.457c-0.012-0.17,0.041-0.345,0.162-0.485
		c0.154-0.177,0.325-0.335,0.509-0.473c0.551-0.413,1.221-0.641,1.914-0.641c0.693,0,1.363,0.228,1.914,0.641
		c0.184,0.138,0.355,0.296,0.509,0.473C30.373,44.505,30.344,44.927,30.065,45.169z M31.606,40.321h-7.794
		c-0.184,0-0.351-0.057-0.472-0.16s-0.196-0.252-0.196-0.436c0-0.184,0.075-0.333,0.196-0.437c0.121-0.103,0.288-0.16,0.472-0.16
		h7.794c0.369,0,0.668,0.229,0.668,0.597C32.274,40.092,31.975,40.321,31.606,40.321z M34.459,27.863
		c-0.129,0.633-0.689,1.109-1.361,1.109s-1.231-0.476-1.361-1.109c-0.018-0.09-0.028-0.184-0.028-0.28
		c0-0.288,0.087-0.555,0.237-0.776c0.1-0.148,0.227-0.275,0.375-0.375c0.222-0.15,0.489-0.237,0.776-0.237
		c0.767,0,1.389,0.622,1.389,1.389C34.487,27.679,34.477,27.773,34.459,27.863z M36.869,26.075
		c-0.061,0.047-0.127,0.083-0.196,0.106c-0.069,0.023-0.141,0.035-0.213,0.035h0c-0.199,0-0.396-0.089-0.527-0.258l0,0
		c-0.063-0.08-0.135-0.162-0.215-0.243c-0.563-0.566-1.526-1.107-2.457-1.134c-0.151-0.005-0.292-0.009-0.425-0.011
		s-0.26-0.001-0.381,0.002c-0.729,0.021-1.286,0.15-2.226,0.568c-0.254,0.111-0.539,0.054-0.728-0.124
		c-0.063-0.059-0.116-0.132-0.153-0.216c-0.15-0.337,0.002-0.731,0.339-0.882c1.487-0.66,2.281-0.709,3.615-0.675
		c0.389,0.011,0.771,0.081,1.136,0.191c1.095,0.333,2.037,1.041,2.55,1.701c0.113,0.146,0.157,0.323,0.136,0.493
		S37.015,25.961,36.869,26.075z"/>
	<path class="st2" d="M14.107,30.767c-0.303,2.774,0.077,4.884,1.016,5.644c0.438,0.355,1.038,0.434,1.805,0.267
		c-0.475-2.204-1.066-5.24-1.518-9.144C14.778,28.306,14.236,29.587,14.107,30.767z"/>
	<path class="st2" d="M27.754,0C12.45,0,0,12.45,0,27.754c0,15.304,12.45,27.754,27.754,27.754s27.754-12.451,27.754-27.754
		C55.508,12.45,43.058,0,27.754,0z M41.254,37.505c-0.55,0.444-1.209,0.688-1.972,0.688c-0.296,0-0.612-0.004-0.939-0.072
		l-0.104,0.583c-0.783,3.863-2.636,8.403-4.06,10.075c-1.955,2.294-5.174,2.881-6.467,2.881h-0.045
		c-1.928,0-4.559-0.974-6.163-2.816c-1.577-1.812-3.395-6.836-4.137-10.178l-0.099-0.444c-0.014-0.062-0.029-0.131-0.043-0.195
		c-0.348,0.075-0.685,0.127-0.998,0.127c-0.763,0-1.422-0.223-1.972-0.668c-1.814-1.469-1.731-4.933-1.52-6.869
		c0.187-1.713,1.119-3.872,2.496-4.76c-0.185-1.88-0.334-3.936-0.422-6.176c-0.008-1.539,0.463-3.1,1.345-4.572
		c-0.363-0.409-0.591-0.941-0.591-1.531c0-1.215,0.94-2.201,2.132-2.295c-0.091-0.268-0.152-0.551-0.152-0.85
		c0-1.462,1.185-2.647,2.647-2.647c0.185,0,0.365,0.019,0.539,0.055c0-0.019-0.006-0.036-0.006-0.055
		c0-1.79,1.451-3.241,3.241-3.241c0.824,0,1.568,0.317,2.14,0.824c0.405-0.534,1.039-0.885,1.761-0.885
		c0.843,0,1.567,0.476,1.942,1.169c0.52-0.302,1.116-0.487,1.761-0.487c1.86,0,3.368,1.443,3.505,3.268
		c0.009,0,0.017-0.003,0.027-0.003c1.565,0,2.833,1.268,2.833,2.833c0,0.376-0.077,0.733-0.21,1.061
		c0.923,0.228,1.611,1.056,1.611,2.049c0,0.221-0.043,0.431-0.106,0.631c0.861,1.412,1.374,2.953,1.382,4.523
		c-0.067,2.284-0.202,4.382-0.376,6.299c1.403,0.868,2.353,3.057,2.541,4.789C42.986,32.552,43.069,36.036,41.254,37.505z"/>
	<circle class="st2" cx="24.294" cy="13.578" r="1.031"/>
</g>
</svg>
