<?xml version="1.0" encoding="utf-8"?>
<!-- Generator: Adobe Illustrator 20.0.0, SVG Export Plug-In . SVG Version: 6.00 Build 0)  -->
<svg version="1.1" id="Layer_1" xmlns="http://www.w3.org/2000/svg" xmlns:xlink="http://www.w3.org/1999/xlink" x="0px" y="0px"
	 viewBox="0 0 24.769 24.769" style="enable-background:new 0 0 24.769 24.769;" xml:space="preserve">
<style type="text/css">
	.st0{fill:#F4F7F9;}
	.st1{opacity:0.3;fill:#190A0C;}
	.st2{fill:#FF2634;}
	.st3{fill:none;stroke:#FF2634;stroke-width:2;stroke-miterlimit:10;}
	.st4{fill:none;stroke:#FF2634;stroke-width:8;stroke-miterlimit:10;}
	.st5{fill:url(#SVGID_5_);}
	.st6{fill:#FFFFFF;}
	.st7{fill:#000111;}
	.st8{fill:none;}
	.st9{fill:#999999;}
	.st10{fill:none;stroke:#999999;stroke-miterlimit:10;}
	.st11{fill:#FF341F;}
	.st12{fill:#FF3C00;}
	.st13{fill:none;stroke:#000111;stroke-width:3;stroke-miterlimit:10;}
	.st14{fill:#808080;}
	.st15{fill:none;stroke:#000111;stroke-width:2;stroke-miterlimit:10;}
</style>
<rect x="-360" y="-114.899" class="st0" width="1680" height="464.433"/>
<path class="st9" d="M24.769,12.385c0,6.84-5.545,12.385-12.385,12.385S0,19.224,0,12.385C0,5.545,5.545,0,12.385,0
	S24.769,5.545,24.769,12.385L24.769,12.385z M24.769,12.385"/>
<path class="st6" d="M15.498,12.37h-2.21v8.095H9.94V12.37H8.348V9.524H9.94V7.683c0-1.316,0.625-3.379,3.378-3.379l2.479,0.011
	v2.762h-1.799c-0.296,0-0.711,0.148-0.711,0.775v1.675h2.503L15.498,12.37z M15.498,12.37"/>
</svg>
