<?xml version="1.0" encoding="utf-8"?>
<!-- Generator: Adobe Illustrator 20.0.0, SVG Export Plug-In . SVG Version: 6.00 Build 0)  -->
<svg version="1.1" id="Layer_1" xmlns="http://www.w3.org/2000/svg" xmlns:xlink="http://www.w3.org/1999/xlink" x="0px" y="0px"
	 viewBox="0 0 24.769 24.769" style="enable-background:new 0 0 24.769 24.769;" xml:space="preserve">
<style type="text/css">
	.st0{fill:#F4F7F9;}
	.st1{opacity:0.3;fill:#190A0C;}
	.st2{fill:#FF2634;}
	.st3{fill:none;stroke:#FF2634;stroke-width:2;stroke-miterlimit:10;}
	.st4{fill:none;stroke:#FF2634;stroke-width:8;stroke-miterlimit:10;}
	.st5{fill:url(#SVGID_5_);}
	.st6{fill:#FFFFFF;}
	.st7{fill:#000111;}
	.st8{fill:none;}
	.st9{fill:#999999;}
	.st10{fill:none;stroke:#999999;stroke-miterlimit:10;}
	.st11{fill:#FF341F;}
	.st12{fill:#FF3C00;}
	.st13{fill:none;stroke:#000111;stroke-width:3;stroke-miterlimit:10;}
	.st14{fill:#808080;}
	.st15{fill:none;stroke:#000111;stroke-width:2;stroke-miterlimit:10;}
</style>
<rect x="-394.406" y="-114.899" class="st0" width="1680" height="464.433"/>
<path class="st9" d="M24.769,12.385c0,6.84-5.545,12.385-12.385,12.385S0,19.224,0,12.385C0,5.545,5.545,0,12.385,0
	S24.769,5.545,24.769,12.385L24.769,12.385z M24.769,12.385"/>
<path class="st6" d="M19.97,8.071c-0.53,0.235-1.102,0.395-1.7,0.466c0.611-0.367,1.08-0.947,1.302-1.638
	C19,7.238,18.366,7.484,17.692,7.617c-0.54-0.576-1.31-0.935-2.161-0.935c-1.635,0-2.96,1.326-2.96,2.96
	c0,0.232,0.026,0.458,0.076,0.675c-2.46-0.124-4.642-1.302-6.101-3.094C6.291,7.661,6.146,8.17,6.146,8.712
	c0,1.027,0.523,1.934,1.316,2.464c-0.485-0.015-0.941-0.149-1.341-0.371c0,0.013,0,0.025,0,0.038c0,1.434,1.021,2.63,2.375,2.902
	c-0.248,0.068-0.51,0.105-0.779,0.105c-0.191,0-0.376-0.018-0.557-0.053c0.378,1.176,1.471,2.032,2.766,2.056
	c-1.013,0.794-2.29,1.267-3.677,1.267c-0.24,0-0.475-0.013-0.706-0.041c1.31,0.84,2.865,1.33,4.537,1.33
	c5.445,0,8.423-4.511,8.423-8.423c0-0.128-0.003-0.256-0.009-0.383C19.072,9.185,19.574,8.664,19.97,8.071L19.97,8.071z
	 M19.97,8.071"/>
</svg>
