<?xml version="1.0" encoding="utf-8"?>
<!-- Generator: Adobe Illustrator 20.0.0, SVG Export Plug-In . SVG Version: 6.00 Build 0)  -->
<svg version="1.1" id="Layer_1" xmlns="http://www.w3.org/2000/svg" xmlns:xlink="http://www.w3.org/1999/xlink" x="0px" y="0px"
	 viewBox="0 0 24.769 24.769" style="enable-background:new 0 0 24.769 24.769;" xml:space="preserve">
<style type="text/css">
	.st0{fill:#F4F7F9;}
	.st1{fill:#9397A3;}
	.st2{fill:#FFFFFF;}
</style>
<rect x="-360" y="-114.899" class="st0" width="1680" height="464.433"/>
<path class="st1" d="M24.769,12.385c0,6.84-5.545,12.385-12.385,12.385S0,19.224,0,12.385C0,5.545,5.545,0,12.385,0
	S24.769,5.545,24.769,12.385L24.769,12.385z"/>
<path class="st2" d="M15.498,12.37h-2.21v8.095H9.94V12.37H8.348V9.524H9.94V7.683c0-1.316,0.625-3.379,3.378-3.379l2.479,0.011
	v2.762h-1.799c-0.296,0-0.711,0.148-0.711,0.775v1.675h2.503L15.498,12.37z"/>
</svg>
