<?xml version="1.0" encoding="utf-8"?>
<!-- Generator: Adobe Illustrator 20.0.0, SVG Export Plug-In . SVG Version: 6.00 Build 0)  -->
<svg version="1.1" id="Layer_1" xmlns="http://www.w3.org/2000/svg" xmlns:xlink="http://www.w3.org/1999/xlink" x="0px" y="0px"
	 viewBox="0 0 26.522 29.891" style="enable-background:new 0 0 26.522 29.891;" xml:space="preserve">
<style type="text/css">
	.st0{fill:#FFFFFF;}
</style>
<g>
	<path class="st0" d="M18.82,16.936v7.834H7.857v-7.834H18.82 M19.544,16.212H7.134v9.281h12.41V16.212L19.544,16.212z"/>
</g>
<g>
	<g>
		<path class="st0" d="M17.633,25.505v3.662H9.045v-3.662H17.633 M18.356,24.781H8.321v5.11h10.035V24.781L18.356,24.781z"/>
	</g>
</g>
<g>
	<g>
		<path class="st0" d="M8.785,7.217v7.234H7.858V6.217h0.927 M9.509,5.493H7.134v9.682h2.375V6.493V5.493z"/>
	</g>
</g>
<g>
	<g>
		<rect x="7.362" y="8.497" class="st0" width="1.865" height="0.724"/>
	</g>
	<g>
		<rect x="7.362" y="11.447" class="st0" width="1.865" height="0.724"/>
	</g>
</g>
<g>
	<g>
		<g>
			<path class="st0" d="M18.82,12.969v1.482h-0.927v-1.482H18.82 M19.544,12.246h-2.375v2.93h2.375V12.246L19.544,12.246z"/>
		</g>
	</g>
</g>
<g>
	<g>
		<g>
			<path class="st0" d="M12.13,9.945v4.507h-0.927V9.945H12.13 M12.854,9.221h-2.375v5.954h2.375V9.221L12.854,9.221z"/>
		</g>
	</g>
	<g>
		<rect x="10.707" y="11.447" class="st0" width="1.865" height="0.724"/>
	</g>
</g>
<g>
	<g>
		<g>
			<path class="st0" d="M15.475,11.396v3.055h-0.928v-3.055H15.475 M16.199,10.672h-2.375v4.503h2.375V10.672L16.199,10.672z"/>
		</g>
	</g>
</g>
<g>
	<path class="st0" d="M1.509,16.151l3.874,1.846v2.492l-4.416-3.635L1.509,16.151 M1.293,15.246l-1.328,1.72l6.142,5.055V17.54
		L1.293,15.246L1.293,15.246z"/>
</g>
<rect x="1.825" y="17.239" transform="matrix(0.5535 -0.8329 0.8329 0.5535 -13.3506 10.2997)" class="st0" width="2.209" height="0.723"/>
<g>
	<path class="st0" d="M15.421,26.944c-0.265,0-0.479,0.215-0.479,0.479c0,0.265,0.215,0.479,0.479,0.479s0.479-0.215,0.479-0.479
		C15.901,27.159,15.686,26.944,15.421,26.944L15.421,26.944z"/>
</g>
<path class="st0" d="M21.25,29.891h-0.725c0-1.267-1.03-2.296-2.297-2.296V26.87C19.895,26.87,21.25,28.226,21.25,29.891z"/>
<g>
	<g>
		<rect x="7.959" class="st0" width="0.724" height="3.383"/>
	</g>
	<g>
		
			<rect x="4.7" y="1.712" transform="matrix(0.7071 -0.7071 0.7071 0.7071 -0.9244 4.5764)" class="st0" width="0.724" height="3.384"/>
	</g>
	<g>
		
			<rect x="9.875" y="3.042" transform="matrix(0.7071 -0.7071 0.7071 0.7071 0.9809 9.1761)" class="st0" width="3.383" height="0.724"/>
	</g>
	<g>
		<rect x="1.838" y="6.289" class="st0" width="3.383" height="0.724"/>
	</g>
	<g>
		<rect x="11.42" y="6.289" class="st0" width="3.383" height="0.724"/>
	</g>
</g>
</svg>
