<?xml version="1.0" encoding="utf-8"?>
<!-- Generator: Adobe Illustrator 20.0.0, SVG Export Plug-In . SVG Version: 6.00 Build 0)  -->
<svg version="1.1" id="Layer_1" xmlns="http://www.w3.org/2000/svg" xmlns:xlink="http://www.w3.org/1999/xlink" x="0px" y="0px"
	 viewBox="0 0 132.876 130.569" style="enable-background:new 0 0 132.876 130.569;" xml:space="preserve">
<style type="text/css">
	.st0{fill:none;}
	.st1{fill:#E20016;}
	.st2{fill:#979797;}
	.st3{fill:#FFFFFF;}
	.st4{fill:#FF2634;}
	.st5{fill:url(#SVGID_1_);}
	.st6{fill:url(#SVGID_3_);}
</style>
<pattern  y="130.569" width="4" height="4" patternUnits="userSpaceOnUse" id="SVGID_2_" viewBox="0 -4 4 4" style="overflow:visible;">
	<g>
		<rect y="-4" class="st0" width="4" height="4"/>
		<g>
			<rect y="-4" class="st0" width="4" height="4"/>
			<rect y="-2" class="st1" width="2" height="2"/>
			<rect x="2" y="-2" class="st0" width="2" height="2"/>
			<rect y="-4" class="st0" width="2" height="2"/>
			<rect x="2" y="-4" class="st0" width="2" height="2"/>
		</g>
	</g>
</pattern>
<pattern  y="130.569" width="4" height="4" patternUnits="userSpaceOnUse" id="SVGID_4_" viewBox="0 -4 4 4" style="overflow:visible;">
	<g>
		<rect y="-4" class="st0" width="4" height="4"/>
		<g>
			<rect y="-4" class="st0" width="4" height="4"/>
			<rect y="-2" class="st1" width="2" height="2"/>
			<rect x="2" y="-2" class="st0" width="2" height="2"/>
			<rect y="-4" class="st0" width="2" height="2"/>
			<rect x="2" y="-4" class="st0" width="2" height="2"/>
		</g>
	</g>
</pattern>
<g>
	<path class="st2" d="M68.5,65.289l18.42-18.431h0.011l5.872-5.884l13.91-13.91l6.379-6.368l-1.596-1.593
		c-25.467-25.469-66.904-25.469-92.362,0C6.796,31.441,0,47.837,0,65.289c0,17.44,6.796,33.839,19.135,46.176
		c12.722,12.736,29.45,19.104,46.176,19.104c16.728,0,33.454-6.368,46.187-19.104l1.596-1.593l-6.379-6.368L68.5,65.289z"/>
	<path class="st3" d="M90.088,29.251c-4.972,0-9.006,4.037-9.006,9.006c0,2.202,0.802,4.257,2.21,5.861l-21.159,21.17l38.183,38.183
		c-20.301,18.617-51.972,18.099-71.634-1.562c-20.191-20.191-20.191-53.062,0-73.252c10.104-10.096,23.366-15.154,36.629-15.154
		c12.57,0,25.129,4.532,35.005,13.595l-4.367,4.363C94.344,30.053,92.286,29.251,90.088,29.251L90.088,29.251z"/>
	<path class="st2" d="M118.054,31.672l-2.145-1.76L76.78,62.859l-2.21,1.869l-0.011,0.011l1.914,1.692l33.707,30.21l0.152-0.121
		l6.224,5.532l1.498-1.267c9.423-8.004,14.822-20.608,14.822-34.563S127.477,39.676,118.054,31.672L118.054,31.672z"/>
	<path class="st3" d="M81.445,64.827l11.008-9.248c1.683,1.836,4.068,2.948,6.641,2.948c4.972,0,9.006-4.037,9.006-9.009
		c0-2.021-0.681-3.947-1.889-5.509l3.33-2.804c6.171,5.721,9.819,14.98,9.819,25.03c0,9.611-3.342,18.496-9.037,24.248
		L81.445,64.827z"/>
	<path class="st4" d="M108.099,65.289c-4.958,0-9.006,4.037-9.006,9.006c0,4.972,4.048,9.006,9.006,9.006
		c4.972,0,9.02-4.034,9.02-9.006C117.119,69.326,113.071,65.289,108.099,65.289L108.099,65.289z"/>
	<path class="st4" d="M65.311,99.072c0,4.96,4.048,9.006,9.006,9.006c4.972,0,9.02-4.046,9.02-9.006c0-4.972-4.048-9.017-9.02-9.017
		C69.359,90.054,65.311,94.1,65.311,99.072L65.311,99.072z"/>
	<path class="st4" d="M42.789,83.301c-4.969,0-9.006,4.037-9.006,9.009c0,4.969,4.037,9.006,9.006,9.006
		c4.972,0,9.006-4.037,9.006-9.006C51.795,87.338,47.76,83.301,42.789,83.301L42.789,83.301z"/>
	<path class="st4" d="M27.032,58.527c-4.972,0-9.02,4.046-9.02,9.006c0,4.972,4.048,9.017,9.02,9.017
		c4.958,0,9.006-4.046,9.006-9.017C36.038,62.572,31.989,58.527,27.032,58.527L27.032,58.527z"/>
	<path class="st4" d="M36.038,47.266c4.969,0,9.006-4.037,9.006-9.009c0-4.969-4.037-9.006-9.006-9.006
		c-4.972,0-9.006,4.037-9.006,9.006C27.032,43.229,31.066,47.266,36.038,47.266L36.038,47.266z"/>
	<path class="st4" d="M63.056,17.99c-4.958,0-9.006,4.037-9.006,9.006c0,4.972,4.048,9.009,9.006,9.009
		c4.972,0,9.02-4.037,9.02-9.009C72.076,22.027,68.027,17.99,63.056,17.99L63.056,17.99z"/>
	<path class="st2" d="M108.099,63.034c1.244,0,2.255-1.011,2.255-2.255c0-2.483,2.024-4.507,4.51-4.507
		c1.242,0,2.255-1.002,2.255-2.244c0-1.253-1.013-2.255-2.255-2.255c-4.972,0-9.006,4.037-9.006,9.006
		C105.858,62.023,106.858,63.034,108.099,63.034L108.099,63.034z"/>
	<path class="st2" d="M33.783,56.272c0,1.253,1.011,2.255,2.255,2.255c1.242,0,2.255-1.002,2.255-2.255
		c0-2.486,2.01-4.499,4.496-4.499c1.244,0,2.255-1.011,2.255-2.255c0-1.242-1.011-2.252-2.255-2.252
		C37.82,47.266,33.783,51.311,33.783,56.272L33.783,56.272z"/>
	<path class="st2" d="M57.932,98.148c-1.011-0.715-2.418-0.473-3.133,0.538c-0.726,1.013-0.484,2.421,0.526,3.136
		c2.024,1.439,2.508,4.254,1.067,6.278c-0.726,1.022-0.484,2.43,0.54,3.145c0.383,0.287,0.845,0.419,1.298,0.419
		c0.704,0,1.396-0.332,1.836-0.946C62.946,106.659,61.991,101.028,57.932,98.148L57.932,98.148z"/>
	<path class="st2" d="M65.311,42.767c-1.242,0-2.255,0.999-2.255,2.244c0,0.318-0.251,0.572-0.56,0.572
		c-2.793,0-5.07,2.266-5.07,5.059c0,0.318-0.251,0.571-0.56,0.571c-2.793,0-5.07,2.266-5.07,5.059c0,1.253,1.014,2.255,2.255,2.255
		c1.244,0,2.255-1.002,2.255-2.255c0-0.307,0.253-0.56,0.56-0.56c2.793,0,5.07-2.278,5.07-5.07c0-0.307,0.253-0.56,0.56-0.56
		c2.793,0,5.07-2.278,5.07-5.07C67.566,43.766,66.555,42.767,65.311,42.767L65.311,42.767z"/>
	<path class="st2" d="M56.963,75.638c0.87,0,1.74-0.231,2.508-0.67c1.078-0.617,1.453-1.993,0.836-3.069
		c-0.617-1.078-1.979-1.464-3.069-0.847c-0.166,0.099-0.329,0.087-0.428,0.054c-0.099-0.02-0.242-0.087-0.341-0.262
		c-1.388-2.421-4.487-3.277-6.917-1.881c-0.265,0.152-0.605,0.054-0.76-0.211c-0.67-1.174-1.771-2.021-3.069-2.384
		c-1.309-0.352-2.672-0.177-3.849,0.495c-1.078,0.614-1.453,1.99-0.836,3.066c0.617,1.09,1.99,1.464,3.069,0.847
		c0.166-0.098,0.329-0.087,0.428-0.053c0.099,0.023,0.242,0.099,0.341,0.262c1.388,2.421,4.488,3.269,6.917,1.881
		c0.265-0.152,0.605-0.053,0.76,0.211c0.67,1.177,1.771,2.021,3.069,2.385C56.074,75.57,56.513,75.638,56.963,75.638L56.963,75.638z
		"/>
	<path class="st2" d="M61.538,85.226c-0.087,0.065-0.231,0.132-0.417,0.087c-1.332-0.284-2.683-0.031-3.818,0.715
		c-1.132,0.738-1.912,1.869-2.187,3.201c-0.253,1.211,0.518,2.407,1.737,2.66c0.155,0.034,0.31,0.056,0.473,0.056
		c1.033,0,1.968-0.738,2.202-1.793c0.042-0.186,0.152-0.296,0.239-0.352c0.09-0.065,0.231-0.121,0.419-0.087
		c1.32,0.284,2.683,0.034,3.815-0.704c1.135-0.738,1.914-1.881,2.19-3.212c0.042-0.186,0.152-0.296,0.242-0.352
		c0.099-0.053,0.242-0.11,0.428-0.076c2.739,0.572,5.422-1.177,6.005-3.916c0.253-1.208-0.529-2.407-1.737-2.66
		c-1.222-0.253-2.421,0.515-2.675,1.737c-0.065,0.298-0.372,0.495-0.67,0.428c-1.32-0.284-2.672-0.031-3.803,0.715
		c-1.135,0.738-1.914,1.869-2.202,3.201C61.749,85.06,61.628,85.173,61.538,85.226L61.538,85.226z"/>
	<path class="st3" d="M65.311,126.092c-16.241,0-31.505-6.323-42.997-17.806C10.833,96.794,4.51,81.533,4.51,65.289
		s6.323-31.517,17.804-43.008C33.794,10.8,49.07,4.474,65.311,4.474c15.495,0,30.101,5.752,41.381,16.244l-3.198,3.201
		C81.445,3.539,46.913,4.046,25.503,25.467c-21.95,21.95-21.95,57.681,0,79.632c10.974,10.974,25.391,16.461,39.807,16.461
		c13.713,0,27.426-4.98,38.183-14.912l3.198,3.201C95.411,120.341,80.806,126.092,65.311,126.092L65.311,126.092z"/>
	<path class="st3" d="M116.579,96.048l-2.914-2.596c6.41-6.599,10.205-16.528,10.205-27.218c0-11.095-4.079-21.356-10.932-27.933
		l2.981-2.508c7.928,7.17,12.46,18.2,12.46,30.43C128.38,78.112,124.101,88.866,116.579,96.048L116.579,96.048z"/>
	<pattern  id="SVGID_1_" xlink:href="#SVGID_2_" patternTransform="matrix(1 0 0 -1 -2838.1394 -13093.8506)">
	</pattern>
	<path class="st5" d="M65.311,126.092c-16.241,0-31.505-6.323-42.997-17.806C10.833,96.794,4.51,81.533,4.51,65.289
		s6.323-31.517,17.804-43.008C33.794,10.8,49.07,4.474,65.311,4.474c15.495,0,30.101,5.752,41.381,16.244l-3.198,3.201
		C81.445,3.539,46.913,4.046,25.503,25.467c-21.95,21.95-21.95,57.681,0,79.632c10.974,10.974,25.391,16.461,39.807,16.461
		c13.713,0,27.426-4.98,38.183-14.912l3.198,3.201C95.411,120.341,80.806,126.092,65.311,126.092L65.311,126.092z"/>
	<pattern  id="SVGID_3_" xlink:href="#SVGID_4_" patternTransform="matrix(1 0 0 -1 -2838.1394 -13093.8506)">
	</pattern>
	<path class="st6" d="M116.579,96.048l-2.914-2.596c6.41-6.599,10.205-16.528,10.205-27.218c0-11.095-4.079-21.356-10.932-27.933
		l2.981-2.508c7.928,7.17,12.46,18.2,12.46,30.43C128.38,78.112,124.101,88.866,116.579,96.048L116.579,96.048z"/>
	<g>
		<path class="st2" d="M103.604,49.518c0,2.486-2.024,4.51-4.51,4.51c-1.219,0-2.365-0.507-3.201-1.351l6.875-5.763
			C103.305,47.66,103.604,48.575,103.604,49.518L103.604,49.518z"/>
	</g>
	<path class="st4" d="M95.97,31.339c-1.599-1.312-3.645-2.101-5.875-2.101c-5.119,0-9.268,4.149-9.268,9.268
		c0,2.252,0.805,4.316,2.141,5.923L95.97,31.339z"/>
	<path class="st4" d="M92.337,55.915c1.48,1.445,3.45,2.407,5.672,2.598c5.1,0.44,9.59-3.337,10.031-8.437
		c0.194-2.244-0.431-4.37-1.624-6.085L92.337,55.915z"/>
</g>
</svg>
