<?xml version="1.0" encoding="utf-8"?>
<!-- Generator: Adobe Illustrator 20.0.0, SVG Export Plug-In . SVG Version: 6.00 Build 0)  -->
<svg version="1.1" id="Layer_1" xmlns="http://www.w3.org/2000/svg" xmlns:xlink="http://www.w3.org/1999/xlink" x="0px" y="0px"
	 viewBox="0 0 179.362 214.504" style="enable-background:new 0 0 179.362 214.504;" xml:space="preserve">
<style type="text/css">
	.st0{fill:none;}
	.st1{fill:#E20016;}
	.st2{fill:#979797;}
	.st3{fill:#FFFFFF;}
	.st4{fill:url(#SVGID_1_);}
	.st5{fill:url(#SVGID_3_);}
	.st6{fill:#FF2634;}
</style>
<pattern  y="174" width="4" height="4" patternUnits="userSpaceOnUse" id="SVGID_2_" viewBox="0 -4 4 4" style="overflow:visible;">
	<g>
		<rect y="-4" class="st0" width="4" height="4"/>
		<g>
			<rect y="-4" class="st0" width="4" height="4"/>
			<rect y="-2" class="st1" width="2" height="2"/>
			<rect x="2" y="-2" class="st0" width="2" height="2"/>
			<rect y="-4" class="st0" width="2" height="2"/>
			<rect x="2" y="-4" class="st0" width="2" height="2"/>
		</g>
	</g>
</pattern>
<pattern  y="174" width="4" height="4" patternUnits="userSpaceOnUse" id="SVGID_4_" viewBox="0 -4 4 4" style="overflow:visible;">
	<g>
		<rect y="-4" class="st0" width="4" height="4"/>
		<g>
			<rect y="-4" class="st0" width="4" height="4"/>
			<rect y="-2" class="st1" width="2" height="2"/>
			<rect x="2" y="-2" class="st0" width="2" height="2"/>
			<rect y="-4" class="st0" width="2" height="2"/>
			<rect x="2" y="-4" class="st0" width="2" height="2"/>
		</g>
	</g>
</pattern>
<g>
	<path class="st2" d="M178.92,26.643l-3.051-5.837c1-0.842,1.319-2.292,0.689-3.499l-9.093-17.394
		c-0.351-0.671-0.951-1.173-1.673-1.399c-0.722-0.226-1.502-0.157-2.173,0.194l-5.07,2.65c-0.053-0.232-0.133-0.462-0.248-0.681
		c-0.729-1.395-2.451-1.934-3.846-1.205l-6.72,3.513c-1.394,0.729-1.934,2.451-1.205,3.846c0.115,0.22,0.258,0.417,0.418,0.593
		L21.449,73.029l-1.16-2.218c-0.729-1.394-2.451-1.934-3.846-1.205c-1.393,0.728-1.932,2.449-1.204,3.843l1.161,2.219l-0.949,0.495
		C8.462,79.815,4.673,87.763,6.232,95.491l0.242,1.195c-0.483,0.149-0.956,0.34-1.415,0.58c-1.973,1.03-3.426,2.768-4.092,4.891
		c-0.665,2.124-0.465,4.378,0.565,6.35c1.064,2.036,2.858,3.449,4.895,4.086c1.918,0.601,4.049,0.504,5.995-0.4
		c2.084,1.558,4.728,2.361,7.507,2.1c8.13-0.768,15.773,4.34,18.172,12.147l15.644,50.913c0.693,2.256,2.342,4.072,4.52,4.981
		c0.226,0.093,0.456,0.179,0.688,0.252c1.996,0.625,4.155,0.436,6.031-0.541l27.712-14.488c3.305-1.728,4.967-5.585,3.95-9.174
		l-10.552-37.264c-1.143-4.04,0.725-8.379,4.447-10.324l21.531-11.255c6.456-3.375,9.495-11.101,7.066-17.973l-1.622-4.593
		c-2.04-5.772,0.511-12.26,5.933-15.096l18.738-9.796c0.67-0.35,1.172-0.952,1.398-1.672c0.209-0.667,0.164-1.382-0.12-2.016
		l34.249-17.904C179.11,29.76,179.649,28.038,178.92,26.643L178.92,26.643z"/>
	<path class="st3" d="M163.735,5.078l6.451,12.345L48.727,80.917l-6.454-12.345l27.372-14.307l2.607,4.987
		c0.363,0.694,0.976,1.178,1.672,1.397c0.695,0.218,1.475,0.17,2.171-0.191l28.066-14.673c0.67-0.349,1.173-0.951,1.399-1.673
		c0.226-0.722,0.157-1.502-0.194-2.172l-2.607-4.987L163.735,5.078z"/>
	<path class="st3" d="M12.887,99.653l-1.068-5.29c-0.87-4.303,0.701-8.703,3.905-11.524l6.294,12.04L12.887,99.653z"/>
	
		<rect x="23.701" y="78.533" transform="matrix(0.8862 -0.4633 0.4633 0.8862 -36.7726 21.2756)" class="st3" width="2.449" height="13.93"/>
	
		<rect x="30.921" y="74.76" transform="matrix(0.8862 -0.4633 0.4633 0.8862 -34.2035 24.1907)" class="st3" width="2.448" height="13.93"/>
	
		<rect x="38.141" y="70.986" transform="matrix(0.8862 -0.4633 0.4633 0.8862 -31.6331 27.106)" class="st3" width="2.447" height="13.929"/>
	
		<rect x="73.861" y="45.449" transform="matrix(0.8862 -0.4633 0.4633 0.8862 -11.817 45.5628)" class="st3" width="25.971" height="2.778"/>
	
		<pattern  id="SVGID_1_" xlink:href="#SVGID_2_" patternTransform="matrix(0.9751 -0.5098 -0.5098 -0.9751 -5151.7993 -15688.3682)">
	</pattern>
	<polygon class="st4" points="74.695,51.623 97.711,39.591 98.998,42.053 75.982,54.085 	"/>
	<path class="st2" d="M6.583,105.865c-0.325-0.622-0.39-1.333-0.18-2.003c0.201-0.641,0.634-1.17,1.215-1.502l0.661,3.281
		c0.113,0.563,0.279,1.101,0.473,1.622C7.864,107.206,7.023,106.709,6.583,105.865L6.583,105.865z"/>
	<path class="st3" d="M86.847,97.527c-2.045-2.829-2.76-6.402-1.959-9.797c0.663-2.816,2.312-5.271,4.619-6.95
		c-1.07,4.115-0.678,8.612,1.423,12.631c0.401,0.769,0.859,1.51,1.353,2.194c1.538,2.135,3.579,3.739,5.858,4.771
		C94.221,102.281,89.41,101.09,86.847,97.527L86.847,97.527z"/>
	<path class="st3" d="M113.765,83.462c1.501,4.244-0.348,8.942-4.335,11.026l-0.995,0.52c-3.96,2.07-8.911,0.895-11.53-2.741
		c-0.34-0.468-0.65-0.971-0.926-1.498c-2.817-5.391-1.106-12.06,3.873-15.455c0.234-0.158,0.485-0.29,0.753-0.385
		c4.352-1.576,9.235,0.13,11.636,4.222L113.765,83.462z"/>
	<path class="st3" d="M120.811,56.825c-5.344,2.793-8.776,8.018-9.53,13.709c-4.36-2.394-9.777-2.608-14.538-0.119l-8.367,4.374
		c-4.561,2.384-7.854,6.625-9.035,11.635c-1.179,5.009-0.129,10.273,2.884,14.438c1.54,2.141,3.587,3.748,5.87,4.781l-0.196,0.102
		c-6.098,3.188-9.163,10.306-7.288,16.926l10.549,37.264c0.286,1.005-0.178,2.089-1.107,2.571l-27.712,14.486
		c-0.803,0.421-1.526,0.23-1.883,0.083c-0.359-0.152-1.002-0.532-1.268-1.398l-15.645-50.912c-2.275-7.404-8.098-12.982-15.175-15.2
		c-2.841-0.89-5.883-1.238-8.979-0.945c-2.306,0.217-4.417-1.115-5.253-3.192l119.942-62.701l2.941,5.626L120.811,56.825z"/>
	
		<pattern  id="SVGID_3_" xlink:href="#SVGID_4_" patternTransform="matrix(0.9751 -0.5098 -0.5098 -0.9751 -5151.7993 -15688.3682)">
	</pattern>
	<path class="st5" d="M120.811,56.825c-5.344,2.793-8.776,8.018-9.53,13.709c-4.36-2.394-9.777-2.608-14.538-0.119l-8.367,4.374
		c-4.561,2.384-7.854,6.625-9.035,11.635c-1.179,5.009-0.129,10.273,2.884,14.438c1.54,2.141,3.587,3.748,5.87,4.781l-0.196,0.102
		c-6.098,3.188-9.163,10.306-7.288,16.926l10.549,37.264c0.286,1.005-0.178,2.089-1.107,2.571l-27.712,14.486
		c-0.803,0.421-1.526,0.23-1.883,0.083c-0.359-0.152-1.002-0.532-1.268-1.398l-15.645-50.912c-2.275-7.404-8.098-12.982-15.175-15.2
		c-2.841-0.89-5.883-1.238-8.979-0.945c-2.306,0.217-4.417-1.115-5.253-3.192l119.942-62.701l2.941,5.626L120.811,56.825z"/>
	
		<rect x="137.947" y="31.587" transform="matrix(0.8862 -0.4633 0.4633 0.8862 2.249 75.9998)" class="st3" width="35.79" height="3.67"/>
	<path class="st2" d="M81.913,158.708l-15.693,8.204c-0.649,0.339-1.233,0.184-1.52,0.062c-0.29-0.119-0.807-0.43-1.017-1.133
		l-18.105-60.618c-0.245-0.817,0.129-1.699,0.883-2.092l16.38-8.565c0.542-0.283,1.039-0.222,1.357-0.122
		c0.065,0.02,0.123,0.044,0.175,0.064c0.291,0.125,0.81,0.44,1.01,1.149l17.418,60.981
		C83.033,157.447,82.658,158.318,81.913,158.708L81.913,158.708z"/>
	<path class="st3" d="M61.713,139.112c2.204,0.691,4.546,0.483,6.593-0.587c2.048-1.072,3.554-2.875,4.245-5.078
		c0.691-2.205,0.483-4.546-0.587-6.594c-1.07-2.047-2.874-3.555-5.078-4.245c-2.207-0.692-4.546-0.483-6.593,0.587
		c-4.228,2.21-5.869,7.445-3.658,11.673C57.705,136.914,59.51,138.421,61.713,139.112L61.713,139.112z"/>
	<path class="st6" d="M62.932,128.245c0.698-0.365,1.498-0.434,2.249-0.199c0.751,0.235,1.367,0.749,1.732,1.446l0.001,0
		c0.364,0.697,0.434,1.498,0.199,2.249c-0.235,0.751-0.749,1.367-1.448,1.73c-0.699,0.366-1.496,0.437-2.248,0.201
		c-0.751-0.235-1.367-0.749-1.733-1.449C60.932,130.786,61.491,128.998,62.932,128.245L62.932,128.245z"/>
	
		<rect x="40.124" y="69.099" transform="matrix(0.8862 -0.4633 0.4633 0.8862 -30.3486 28.5635)" class="st6" width="5.7" height="13.93"/>
	
		<rect x="32.905" y="72.873" transform="matrix(0.8862 -0.4633 0.4633 0.8862 -32.9183 25.6485)" class="st6" width="5.7" height="13.93"/>
	
		<rect x="25.687" y="76.646" transform="matrix(0.8862 -0.4633 0.4633 0.8862 -35.4876 22.734)" class="st6" width="5.7" height="13.93"/>
	<polygon class="st6" points="22.018,94.878 27.07,92.238 20.616,79.893 15.725,82.839 	"/>
</g>
</svg>
