<?xml version="1.0" encoding="utf-8"?>
<!-- Generator: Adobe Illustrator 20.0.0, SVG Export Plug-In . SVG Version: 6.00 Build 0)  -->
<svg version="1.1" id="Layer_1" xmlns="http://www.w3.org/2000/svg" xmlns:xlink="http://www.w3.org/1999/xlink" x="0px" y="0px"
	 viewBox="0 0 174.372 172.307" style="enable-background:new 0 0 174.372 172.307;" xml:space="preserve">
<style type="text/css">
	.st0{fill:none;}
	.st1{fill:#E20016;}
	.st2{fill:#F2F5F7;}
	.st3{clip-path:url(#SVGID_4_);}
	.st4{fill:#000111;}
	.st5{opacity:0.3;fill:#190A0C;}
	.st6{fill:#FF2634;}
	.st7{fill:none;stroke:#FF2634;stroke-width:2;stroke-miterlimit:10;}
	.st8{fill:none;stroke:#FF2634;stroke-width:8;stroke-miterlimit:10;}
	.st9{fill:url(#SVGID_9_);}
	.st10{fill:#FFFFFF;}
	.st11{fill:#979797;}
	.st12{fill:none;stroke:#979797;stroke-miterlimit:10;}
	.st13{fill:#FF341F;}
	.st14{fill:#E20000;}
	.st15{fill:none;stroke:#000111;stroke-width:3;stroke-miterlimit:10;}
	.st16{fill:#CACACA;}
	.st17{fill:#808080;}
	.st18{fill:none;stroke:#000111;stroke-width:2;stroke-miterlimit:10;}
	.st19{fill:none;stroke:#FFFFFF;stroke-width:2;stroke-miterlimit:10;}
	.st20{opacity:0.65;fill:#000111;}
	.st21{opacity:0.8;fill:url(#);}
	.st22{fill:none;stroke:#CACACA;stroke-miterlimit:10;}
	.st23{fill:url(#SVGID_14_);}
	.st24{fill:url(#SVGID_15_);}
	.st25{fill:url(#New_Pattern_Swatch_5);}
	.st26{fill:url(#SVGID_16_);}
	.st27{fill:url(#SVGID_17_);}
	.st28{fill:url(#SVGID_18_);}
	.st29{fill:url(#SVGID_19_);}
	.st30{fill:url(#SVGID_20_);}
	.st31{fill:url(#SVGID_21_);}
	.st32{clip-path:url(#SVGID_23_);}
	.st33{clip-path:url(#SVGID_25_);}
	.st34{clip-path:url(#SVGID_27_);}
	.st35{clip-path:url(#SVGID_29_);}
	.st36{fill:url(#SVGID_30_);}
	.st37{fill:url(#SVGID_31_);}
	.st38{clip-path:url(#SVGID_33_);}
	.st39{clip-path:url(#SVGID_35_);}
	.st40{clip-path:url(#SVGID_37_);}
	.st41{clip-path:url(#SVGID_39_);}
	.st42{fill:url(#SVGID_40_);}
	.st43{fill:url(#SVGID_41_);}
	.st44{clip-path:url(#SVGID_43_);}
	.st45{clip-path:url(#SVGID_45_);}
	.st46{clip-path:url(#SVGID_47_);}
	.st47{clip-path:url(#SVGID_49_);}
	.st48{fill:url(#SVGID_50_);}
	.st49{fill:url(#SVGID_51_);}
</style>
<pattern  x="-2168.435" y="-1886.218" width="4" height="4" patternUnits="userSpaceOnUse" id="New_Pattern_Swatch_5" viewBox="0 -4 4 4" style="overflow:visible;">
	<g>
		<rect y="-4" class="st0" width="4" height="4"/>
		<rect y="-4" class="st1" width="2" height="2"/>
		<rect x="2" y="-4" class="st0" width="2" height="2"/>
		<rect y="-2" class="st0" width="2" height="2"/>
		<rect x="2" y="-2" class="st0" width="2" height="2"/>
	</g>
</pattern>
<rect x="-69.322" y="-72.84" class="st2" width="313.016" height="313.016"/>
<g>
	<path class="st4" d="M167.927,5.99C163.978,2.118,158.844,0,153.427,0c-0.133,0-0.265,0.002-0.4,0.005
		c-7.411,0.139-13.918,4.213-17.527,10.189C131.837,4.092,125.156,0,117.538,0c-7.61,0-14.282,4.08-17.949,10.169
		C95.923,4.08,89.25,0,81.641,0c-7.609,0-14.282,4.08-17.949,10.169C60.026,4.08,53.354,0,45.744,0
		C35.214,0,26.479,7.814,25.024,17.947H9.848c-1.653,0-2.991,1.338-2.991,2.989v83.644H2.989c-1.651,0-2.989,1.338-2.989,2.989
		v21.388c0,1.651,1.338,2.989,2.989,2.989h3.868v37.372c0,1.651,1.338,2.989,2.991,2.989h143.585c1.651,0,2.989-1.339,2.989-2.989
		v-25.857c10.161-1.624,17.949-10.446,17.949-21.054V21.291C174.37,15.584,172.023,10.008,167.927,5.99L167.927,5.99z"/>
	<path class="st6" d="M150.445,137.752h-28.015c0.896-1.869,1.666-3.807,2.302-5.806h25.714V137.752z"/>
	<path class="st6" d="M78.654,23.926v49.232C66.89,73.928,56.343,79.217,48.732,87.3V23.926H78.654z"/>
	<path class="st6" d="M114.548,23.926V87.3c-7.609-8.083-18.156-13.37-29.915-14.143V23.926H114.548z"/>
	<path class="st2" d="M81.641,79.035c21.63,0,39.23,17.596,39.23,39.229c0,21.63-17.599,39.23-39.23,39.23
		s-39.229-17.599-39.229-39.23S60.011,79.035,81.641,79.035L81.641,79.035z"/>
	<path class="st6" d="M78.654,163.371v2.958H48.732v-17.103C56.343,157.311,66.892,162.599,78.654,163.371L78.654,163.371z"/>
	<path class="st6" d="M84.633,163.371c11.76-0.773,22.306-6.062,29.915-14.145v17.103H84.633V163.371z"/>
	<path class="st6" d="M150.445,104.58h-25.714c-1.049-3.295-2.466-6.426-4.202-9.345V23.926h29.915V104.58z"/>
	<path class="st2" d="M117.538,5.978c7.223,0,13.266,5.15,14.657,11.969h-29.316C104.269,11.128,110.312,5.978,117.538,5.978
		L117.538,5.978z"/>
	<path class="st2" d="M81.641,5.978c7.225,0,13.269,5.15,14.657,11.969H66.982C68.372,11.128,74.416,5.978,81.641,5.978
		L81.641,5.978z"/>
	<path class="st2" d="M45.744,5.978c7.225,0,13.269,5.15,14.657,11.969H31.088C32.476,11.128,38.52,5.978,45.744,5.978L45.744,5.978
		z"/>
	<path class="st6" d="M12.838,23.926h29.915v71.309c-1.736,2.92-3.153,6.05-4.202,9.345H12.838V23.926z"/>
	<g>
		<path class="st2" d="M126.189,125.968c0.433-2.505,0.66-5.078,0.66-7.704c0-2.628-0.227-5.201-0.66-7.706h31.112v15.409H126.189z"
			/>
		<path class="st2" d="M5.978,110.559h31.113c-0.431,2.505-0.658,5.078-0.658,7.706c0,2.626,0.227,5.199,0.658,7.704H5.978V110.559z
			"/>
	</g>
	<g>
		<pattern  id="SVGID_2_" xlink:href="#New_Pattern_Swatch_5" patternTransform="matrix(1.287 0 0 1.287 1454.2123 1604.5638)">
		</pattern>
		<path style="fill:url(#SVGID_2_);" d="M126.189,125.968c0.433-2.505,0.66-5.078,0.66-7.704c0-2.628-0.227-5.201-0.66-7.706h31.112
			v15.409H126.189z"/>
		<pattern  id="SVGID_4_" xlink:href="#New_Pattern_Swatch_5" patternTransform="matrix(1.287 0 0 1.287 1454.2123 1604.5638)">
		</pattern>
		<path style="fill:url(#SVGID_4_);" d="M5.978,110.559h31.113c-0.431,2.505-0.658,5.078-0.658,7.706
			c0,2.626,0.227,5.199,0.658,7.704H5.978V110.559z"/>
	</g>
	<path class="st6" d="M12.838,131.946h25.714c1.049,3.295,2.466,6.426,4.202,9.348v25.035H12.838V131.946z"/>
	<rect x="120.529" y="143.73" class="st6" width="29.915" height="22.599"/>
	<path class="st2" d="M168.392,122.406c0,7.301-5.127,13.423-11.969,14.967v-5.426h3.868c1.653,0,2.991-1.338,2.991-2.989v-21.388
		c0-1.653-1.338-2.992-2.991-2.992h-3.868V20.936c0-1.651-1.339-2.989-2.989-2.989h-14.652c1.381-6.693,7.294-11.831,14.36-11.964
		c0.095-0.002,0.187-0.002,0.281-0.002c3.842,0,7.497,1.514,10.315,4.279c2.958,2.901,4.654,6.922,4.654,11.032V122.406z"/>
	<path class="st2" d="M81.641,151.776c18.48,0,33.511-15.034,33.511-33.512c0-18.479-15.034-33.513-33.511-33.513
		S48.13,99.785,48.13,118.264C48.128,136.741,63.161,151.776,81.641,151.776L81.641,151.776z"/>
	<g>
		<path class="st4" d="M99.321,97.18l-3.319,6.165c-0.784,1.453-0.238,3.268,1.215,4.049c0.451,0.245,0.937,0.359,1.415,0.359
			c1.064,0,2.095-0.57,2.634-1.572l2.387-4.433c0.995,1.321,1.869,2.738,2.617,4.229l-14.228,26.405
			c-0.781,1.453-0.238,3.268,1.215,4.049c0.451,0.243,0.937,0.359,1.415,0.359c1.065,0,2.096-0.57,2.634-1.572l11.511-21.364
			c0.231,1.437,0.357,2.909,0.357,4.409c0,15.183-12.351,27.533-27.533,27.533c-6.769,0-12.972-2.461-17.772-6.529l9.718-18.037
			c0.782-1.453,0.24-3.268-1.215-4.049c-1.453-0.784-3.266-0.24-4.049,1.213l-8.773,16.283c-0.914-1.228-1.723-2.536-2.426-3.908
			l21.48-39.867c0.997-0.108,2.01-0.171,3.036-0.171C88.367,90.732,94.535,93.159,99.321,97.18L99.321,97.18z"/>
		<path class="st4" d="M70.67,93.018L54.522,122.99c-0.267-1.536-0.413-3.115-0.413-4.726
			C54.108,106.981,60.934,97.265,70.67,93.018L70.67,93.018z"/>
	</g>
	<path class="st6" d="M81.641,121.254h10.307c1.651,0,2.989-1.339,2.989-2.99c0-1.653-1.338-2.991-2.989-2.991H84.63V97.57
		c0-1.651-1.338-2.989-2.989-2.989s-2.989,1.339-2.989,2.989v20.694C78.652,119.915,79.99,121.254,81.641,121.254L81.641,121.254z
		 M81.641,121.254"/>
	<g>
		<g>
			<defs>
				<rect id="SVGID_32_" x="139.88" y="26.868" width="7.687" height="70.431"/>
			</defs>
			<clipPath id="SVGID_6_">
				<use xlink:href="#SVGID_32_"  style="overflow:visible;"/>
			</clipPath>
			<g style="clip-path:url(#SVGID_6_);">
				<rect x="144.948" y="21.826" class="st0" width="5.148" height="5.148"/>
				<rect x="144.948" y="21.826" class="st2" width="2.574" height="2.574"/>
				<rect x="147.522" y="21.826" class="st0" width="2.574" height="2.574"/>
				<rect x="144.948" y="24.4" class="st0" width="2.574" height="2.574"/>
				<rect x="147.522" y="24.4" class="st0" width="2.574" height="2.574"/>
			</g>
			<g style="clip-path:url(#SVGID_6_);">
				<rect x="144.948" y="26.974" class="st0" width="5.148" height="5.148"/>
				<rect x="144.948" y="26.974" class="st2" width="2.574" height="2.574"/>
				<rect x="147.522" y="26.974" class="st0" width="2.574" height="2.574"/>
				<rect x="144.948" y="29.548" class="st0" width="2.574" height="2.574"/>
				<rect x="147.522" y="29.548" class="st0" width="2.574" height="2.574"/>
			</g>
			<g style="clip-path:url(#SVGID_6_);">
				<rect x="144.948" y="32.122" class="st0" width="5.148" height="5.148"/>
				<rect x="144.948" y="32.122" class="st2" width="2.574" height="2.574"/>
				<rect x="147.522" y="32.122" class="st0" width="2.574" height="2.574"/>
				<rect x="144.948" y="34.696" class="st0" width="2.574" height="2.574"/>
				<rect x="147.522" y="34.696" class="st0" width="2.574" height="2.574"/>
			</g>
			<g style="clip-path:url(#SVGID_6_);">
				<rect x="144.948" y="37.27" class="st0" width="5.148" height="5.148"/>
				<rect x="144.948" y="37.27" class="st2" width="2.574" height="2.574"/>
				<rect x="147.522" y="37.27" class="st0" width="2.574" height="2.574"/>
				<rect x="144.948" y="39.844" class="st0" width="2.574" height="2.574"/>
				<rect x="147.522" y="39.844" class="st0" width="2.574" height="2.574"/>
			</g>
			<g style="clip-path:url(#SVGID_6_);">
				<rect x="144.948" y="42.418" class="st0" width="5.148" height="5.148"/>
				<rect x="144.948" y="42.418" class="st2" width="2.574" height="2.574"/>
				<rect x="147.522" y="42.418" class="st0" width="2.574" height="2.574"/>
				<rect x="144.948" y="44.992" class="st0" width="2.574" height="2.574"/>
				<rect x="147.522" y="44.992" class="st0" width="2.574" height="2.574"/>
			</g>
			<g style="clip-path:url(#SVGID_6_);">
				<rect x="144.948" y="47.566" class="st0" width="5.148" height="5.148"/>
				<rect x="144.948" y="47.566" class="st2" width="2.574" height="2.574"/>
				<rect x="147.522" y="47.566" class="st0" width="2.574" height="2.574"/>
				<rect x="144.948" y="50.14" class="st0" width="2.574" height="2.574"/>
				<rect x="147.522" y="50.14" class="st0" width="2.574" height="2.574"/>
			</g>
			<g style="clip-path:url(#SVGID_6_);">
				<rect x="144.948" y="52.714" class="st0" width="5.148" height="5.148"/>
				<rect x="144.948" y="52.714" class="st2" width="2.574" height="2.574"/>
				<rect x="147.522" y="52.714" class="st0" width="2.574" height="2.574"/>
				<rect x="144.948" y="55.288" class="st0" width="2.574" height="2.574"/>
				<rect x="147.522" y="55.288" class="st0" width="2.574" height="2.574"/>
			</g>
			<g style="clip-path:url(#SVGID_6_);">
				<rect x="144.948" y="57.862" class="st0" width="5.148" height="5.148"/>
				<rect x="144.948" y="57.862" class="st2" width="2.574" height="2.574"/>
				<rect x="147.522" y="57.862" class="st0" width="2.574" height="2.574"/>
				<rect x="144.948" y="60.436" class="st0" width="2.574" height="2.574"/>
				<rect x="147.522" y="60.436" class="st0" width="2.574" height="2.574"/>
			</g>
			<g style="clip-path:url(#SVGID_6_);">
				<rect x="144.948" y="63.01" class="st0" width="5.148" height="5.148"/>
				<rect x="144.948" y="63.01" class="st2" width="2.574" height="2.574"/>
				<rect x="147.522" y="63.01" class="st0" width="2.574" height="2.574"/>
				<rect x="144.948" y="65.584" class="st0" width="2.574" height="2.574"/>
				<rect x="147.522" y="65.584" class="st0" width="2.574" height="2.574"/>
			</g>
			<g style="clip-path:url(#SVGID_6_);">
				<rect x="144.948" y="68.158" class="st0" width="5.148" height="5.148"/>
				<rect x="144.948" y="68.158" class="st2" width="2.574" height="2.574"/>
				<rect x="147.522" y="68.158" class="st0" width="2.574" height="2.574"/>
				<rect x="144.948" y="70.732" class="st0" width="2.574" height="2.574"/>
				<rect x="147.522" y="70.732" class="st0" width="2.574" height="2.574"/>
			</g>
			<g style="clip-path:url(#SVGID_6_);">
				<rect x="144.948" y="73.306" class="st0" width="5.148" height="5.148"/>
				<rect x="144.948" y="73.306" class="st2" width="2.574" height="2.574"/>
				<rect x="147.522" y="73.306" class="st0" width="2.574" height="2.574"/>
				<rect x="144.948" y="75.88" class="st0" width="2.574" height="2.574"/>
				<rect x="147.522" y="75.88" class="st0" width="2.574" height="2.574"/>
			</g>
			<g style="clip-path:url(#SVGID_6_);">
				<rect x="144.948" y="78.454" class="st0" width="5.148" height="5.148"/>
				<rect x="144.948" y="78.454" class="st2" width="2.574" height="2.574"/>
				<rect x="147.522" y="78.454" class="st0" width="2.574" height="2.574"/>
				<rect x="144.948" y="81.028" class="st0" width="2.574" height="2.574"/>
				<rect x="147.522" y="81.028" class="st0" width="2.574" height="2.574"/>
			</g>
			<g style="clip-path:url(#SVGID_6_);">
				<rect x="144.948" y="83.602" class="st0" width="5.148" height="5.148"/>
				<rect x="144.948" y="83.602" class="st2" width="2.574" height="2.574"/>
				<rect x="147.522" y="83.602" class="st0" width="2.574" height="2.574"/>
				<rect x="144.948" y="86.176" class="st0" width="2.574" height="2.574"/>
				<rect x="147.522" y="86.176" class="st0" width="2.574" height="2.574"/>
			</g>
			<g style="clip-path:url(#SVGID_6_);">
				<rect x="144.948" y="88.75" class="st0" width="5.148" height="5.148"/>
				<rect x="144.948" y="88.75" class="st2" width="2.574" height="2.574"/>
				<rect x="147.522" y="88.75" class="st0" width="2.574" height="2.574"/>
				<rect x="144.948" y="91.324" class="st0" width="2.574" height="2.574"/>
				<rect x="147.522" y="91.324" class="st0" width="2.574" height="2.574"/>
			</g>
			<g style="clip-path:url(#SVGID_6_);">
				<rect x="144.948" y="93.898" class="st0" width="5.148" height="5.148"/>
				<rect x="144.948" y="93.898" class="st2" width="2.574" height="2.574"/>
				<rect x="147.522" y="93.898" class="st0" width="2.574" height="2.574"/>
				<rect x="144.948" y="96.472" class="st0" width="2.574" height="2.574"/>
				<rect x="147.522" y="96.472" class="st0" width="2.574" height="2.574"/>
			</g>
			<g style="clip-path:url(#SVGID_6_);">
				<rect x="139.8" y="21.826" class="st0" width="5.148" height="5.148"/>
				<rect x="139.8" y="21.826" class="st2" width="2.574" height="2.574"/>
				<rect x="142.374" y="21.826" class="st0" width="2.574" height="2.574"/>
				<rect x="139.8" y="24.4" class="st0" width="2.574" height="2.574"/>
				<rect x="142.374" y="24.4" class="st0" width="2.574" height="2.574"/>
			</g>
			<g style="clip-path:url(#SVGID_6_);">
				<rect x="139.8" y="26.974" class="st0" width="5.148" height="5.148"/>
				<rect x="139.8" y="26.974" class="st2" width="2.574" height="2.574"/>
				<rect x="142.374" y="26.974" class="st0" width="2.574" height="2.574"/>
				<rect x="139.8" y="29.548" class="st0" width="2.574" height="2.574"/>
				<rect x="142.374" y="29.548" class="st0" width="2.574" height="2.574"/>
			</g>
			<g style="clip-path:url(#SVGID_6_);">
				<rect x="139.8" y="32.122" class="st0" width="5.148" height="5.148"/>
				<rect x="139.8" y="32.122" class="st2" width="2.574" height="2.574"/>
				<rect x="142.374" y="32.122" class="st0" width="2.574" height="2.574"/>
				<rect x="139.8" y="34.696" class="st0" width="2.574" height="2.574"/>
				<rect x="142.374" y="34.696" class="st0" width="2.574" height="2.574"/>
			</g>
			<g style="clip-path:url(#SVGID_6_);">
				<rect x="139.8" y="37.27" class="st0" width="5.148" height="5.148"/>
				<rect x="139.8" y="37.27" class="st2" width="2.574" height="2.574"/>
				<rect x="142.374" y="37.27" class="st0" width="2.574" height="2.574"/>
				<rect x="139.8" y="39.844" class="st0" width="2.574" height="2.574"/>
				<rect x="142.374" y="39.844" class="st0" width="2.574" height="2.574"/>
			</g>
			<g style="clip-path:url(#SVGID_6_);">
				<rect x="139.8" y="42.418" class="st0" width="5.148" height="5.148"/>
				<rect x="139.8" y="42.418" class="st2" width="2.574" height="2.574"/>
				<rect x="142.374" y="42.418" class="st0" width="2.574" height="2.574"/>
				<rect x="139.8" y="44.992" class="st0" width="2.574" height="2.574"/>
				<rect x="142.374" y="44.992" class="st0" width="2.574" height="2.574"/>
			</g>
			<g style="clip-path:url(#SVGID_6_);">
				<rect x="139.8" y="47.566" class="st0" width="5.148" height="5.148"/>
				<rect x="139.8" y="47.566" class="st2" width="2.574" height="2.574"/>
				<rect x="142.374" y="47.566" class="st0" width="2.574" height="2.574"/>
				<rect x="139.8" y="50.14" class="st0" width="2.574" height="2.574"/>
				<rect x="142.374" y="50.14" class="st0" width="2.574" height="2.574"/>
			</g>
			<g style="clip-path:url(#SVGID_6_);">
				<rect x="139.8" y="52.714" class="st0" width="5.148" height="5.148"/>
				<rect x="139.8" y="52.714" class="st2" width="2.574" height="2.574"/>
				<rect x="142.374" y="52.714" class="st0" width="2.574" height="2.574"/>
				<rect x="139.8" y="55.288" class="st0" width="2.574" height="2.574"/>
				<rect x="142.374" y="55.288" class="st0" width="2.574" height="2.574"/>
			</g>
			<g style="clip-path:url(#SVGID_6_);">
				<rect x="139.8" y="57.862" class="st0" width="5.148" height="5.148"/>
				<rect x="139.8" y="57.862" class="st2" width="2.574" height="2.574"/>
				<rect x="142.374" y="57.862" class="st0" width="2.574" height="2.574"/>
				<rect x="139.8" y="60.436" class="st0" width="2.574" height="2.574"/>
				<rect x="142.374" y="60.436" class="st0" width="2.574" height="2.574"/>
			</g>
			<g style="clip-path:url(#SVGID_6_);">
				<rect x="139.8" y="63.01" class="st0" width="5.148" height="5.148"/>
				<rect x="139.8" y="63.01" class="st2" width="2.574" height="2.574"/>
				<rect x="142.374" y="63.01" class="st0" width="2.574" height="2.574"/>
				<rect x="139.8" y="65.584" class="st0" width="2.574" height="2.574"/>
				<rect x="142.374" y="65.584" class="st0" width="2.574" height="2.574"/>
			</g>
			<g style="clip-path:url(#SVGID_6_);">
				<rect x="139.8" y="68.158" class="st0" width="5.148" height="5.148"/>
				<rect x="139.8" y="68.158" class="st2" width="2.574" height="2.574"/>
				<rect x="142.374" y="68.158" class="st0" width="2.574" height="2.574"/>
				<rect x="139.8" y="70.732" class="st0" width="2.574" height="2.574"/>
				<rect x="142.374" y="70.732" class="st0" width="2.574" height="2.574"/>
			</g>
			<g style="clip-path:url(#SVGID_6_);">
				<rect x="139.8" y="73.306" class="st0" width="5.148" height="5.148"/>
				<rect x="139.8" y="73.306" class="st2" width="2.574" height="2.574"/>
				<rect x="142.374" y="73.306" class="st0" width="2.574" height="2.574"/>
				<rect x="139.8" y="75.88" class="st0" width="2.574" height="2.574"/>
				<rect x="142.374" y="75.88" class="st0" width="2.574" height="2.574"/>
			</g>
			<g style="clip-path:url(#SVGID_6_);">
				<rect x="139.8" y="78.454" class="st0" width="5.148" height="5.148"/>
				<rect x="139.8" y="78.454" class="st2" width="2.574" height="2.574"/>
				<rect x="142.374" y="78.454" class="st0" width="2.574" height="2.574"/>
				<rect x="139.8" y="81.028" class="st0" width="2.574" height="2.574"/>
				<rect x="142.374" y="81.028" class="st0" width="2.574" height="2.574"/>
			</g>
			<g style="clip-path:url(#SVGID_6_);">
				<rect x="139.8" y="83.602" class="st0" width="5.148" height="5.148"/>
				<rect x="139.8" y="83.602" class="st2" width="2.574" height="2.574"/>
				<rect x="142.374" y="83.602" class="st0" width="2.574" height="2.574"/>
				<rect x="139.8" y="86.176" class="st0" width="2.574" height="2.574"/>
				<rect x="142.374" y="86.176" class="st0" width="2.574" height="2.574"/>
			</g>
			<g style="clip-path:url(#SVGID_6_);">
				<rect x="139.8" y="88.75" class="st0" width="5.148" height="5.148"/>
				<rect x="139.8" y="88.75" class="st2" width="2.574" height="2.574"/>
				<rect x="142.374" y="88.75" class="st0" width="2.574" height="2.574"/>
				<rect x="139.8" y="91.324" class="st0" width="2.574" height="2.574"/>
				<rect x="142.374" y="91.324" class="st0" width="2.574" height="2.574"/>
			</g>
			<g style="clip-path:url(#SVGID_6_);">
				<rect x="139.8" y="93.898" class="st0" width="5.148" height="5.148"/>
				<rect x="139.8" y="93.898" class="st2" width="2.574" height="2.574"/>
				<rect x="142.374" y="93.898" class="st0" width="2.574" height="2.574"/>
				<rect x="139.8" y="96.472" class="st0" width="2.574" height="2.574"/>
				<rect x="142.374" y="96.472" class="st0" width="2.574" height="2.574"/>
			</g>
		</g>
	</g>
	<g>
		<g>
			<defs>
				<rect id="SVGID_34_" x="31.908" y="26.868" width="7.687" height="66.15"/>
			</defs>
			<clipPath id="SVGID_8_">
				<use xlink:href="#SVGID_34_"  style="overflow:visible;"/>
			</clipPath>
			<g style="clip-path:url(#SVGID_8_);">
				<rect x="36.976" y="21.826" class="st0" width="5.148" height="5.148"/>
				<rect x="36.976" y="21.826" class="st2" width="2.574" height="2.574"/>
				<rect x="39.55" y="21.826" class="st0" width="2.574" height="2.574"/>
				<rect x="36.976" y="24.4" class="st0" width="2.574" height="2.574"/>
				<rect x="39.55" y="24.4" class="st0" width="2.574" height="2.574"/>
			</g>
			<g style="clip-path:url(#SVGID_8_);">
				<rect x="36.976" y="26.974" class="st0" width="5.148" height="5.148"/>
				<rect x="36.976" y="26.974" class="st2" width="2.574" height="2.574"/>
				<rect x="39.55" y="26.974" class="st0" width="2.574" height="2.574"/>
				<rect x="36.976" y="29.548" class="st0" width="2.574" height="2.574"/>
				<rect x="39.55" y="29.548" class="st0" width="2.574" height="2.574"/>
			</g>
			<g style="clip-path:url(#SVGID_8_);">
				<rect x="36.976" y="32.122" class="st0" width="5.148" height="5.148"/>
				<rect x="36.976" y="32.122" class="st2" width="2.574" height="2.574"/>
				<rect x="39.55" y="32.122" class="st0" width="2.574" height="2.574"/>
				<rect x="36.976" y="34.696" class="st0" width="2.574" height="2.574"/>
				<rect x="39.55" y="34.696" class="st0" width="2.574" height="2.574"/>
			</g>
			<g style="clip-path:url(#SVGID_8_);">
				<rect x="36.976" y="37.27" class="st0" width="5.148" height="5.148"/>
				<rect x="36.976" y="37.27" class="st2" width="2.574" height="2.574"/>
				<rect x="39.55" y="37.27" class="st0" width="2.574" height="2.574"/>
				<rect x="36.976" y="39.844" class="st0" width="2.574" height="2.574"/>
				<rect x="39.55" y="39.844" class="st0" width="2.574" height="2.574"/>
			</g>
			<g style="clip-path:url(#SVGID_8_);">
				<rect x="36.976" y="42.418" class="st0" width="5.148" height="5.148"/>
				<rect x="36.976" y="42.418" class="st2" width="2.574" height="2.574"/>
				<rect x="39.55" y="42.418" class="st0" width="2.574" height="2.574"/>
				<rect x="36.976" y="44.992" class="st0" width="2.574" height="2.574"/>
				<rect x="39.55" y="44.992" class="st0" width="2.574" height="2.574"/>
			</g>
			<g style="clip-path:url(#SVGID_8_);">
				<rect x="36.976" y="47.566" class="st0" width="5.148" height="5.148"/>
				<rect x="36.976" y="47.566" class="st2" width="2.574" height="2.574"/>
				<rect x="39.55" y="47.566" class="st0" width="2.574" height="2.574"/>
				<rect x="36.976" y="50.14" class="st0" width="2.574" height="2.574"/>
				<rect x="39.55" y="50.14" class="st0" width="2.574" height="2.574"/>
			</g>
			<g style="clip-path:url(#SVGID_8_);">
				<rect x="36.976" y="52.714" class="st0" width="5.148" height="5.148"/>
				<rect x="36.976" y="52.714" class="st2" width="2.574" height="2.574"/>
				<rect x="39.55" y="52.714" class="st0" width="2.574" height="2.574"/>
				<rect x="36.976" y="55.288" class="st0" width="2.574" height="2.574"/>
				<rect x="39.55" y="55.288" class="st0" width="2.574" height="2.574"/>
			</g>
			<g style="clip-path:url(#SVGID_8_);">
				<rect x="36.976" y="57.862" class="st0" width="5.148" height="5.148"/>
				<rect x="36.976" y="57.862" class="st2" width="2.574" height="2.574"/>
				<rect x="39.55" y="57.862" class="st0" width="2.574" height="2.574"/>
				<rect x="36.976" y="60.436" class="st0" width="2.574" height="2.574"/>
				<rect x="39.55" y="60.436" class="st0" width="2.574" height="2.574"/>
			</g>
			<g style="clip-path:url(#SVGID_8_);">
				<rect x="36.976" y="63.01" class="st0" width="5.148" height="5.148"/>
				<rect x="36.976" y="63.01" class="st2" width="2.574" height="2.574"/>
				<rect x="39.55" y="63.01" class="st0" width="2.574" height="2.574"/>
				<rect x="36.976" y="65.584" class="st0" width="2.574" height="2.574"/>
				<rect x="39.55" y="65.584" class="st0" width="2.574" height="2.574"/>
			</g>
			<g style="clip-path:url(#SVGID_8_);">
				<rect x="36.976" y="68.158" class="st0" width="5.148" height="5.148"/>
				<rect x="36.976" y="68.158" class="st2" width="2.574" height="2.574"/>
				<rect x="39.55" y="68.158" class="st0" width="2.574" height="2.574"/>
				<rect x="36.976" y="70.732" class="st0" width="2.574" height="2.574"/>
				<rect x="39.55" y="70.732" class="st0" width="2.574" height="2.574"/>
			</g>
			<g style="clip-path:url(#SVGID_8_);">
				<rect x="36.976" y="73.306" class="st0" width="5.148" height="5.148"/>
				<rect x="36.976" y="73.306" class="st2" width="2.574" height="2.574"/>
				<rect x="39.55" y="73.306" class="st0" width="2.574" height="2.574"/>
				<rect x="36.976" y="75.88" class="st0" width="2.574" height="2.574"/>
				<rect x="39.55" y="75.88" class="st0" width="2.574" height="2.574"/>
			</g>
			<g style="clip-path:url(#SVGID_8_);">
				<rect x="36.976" y="78.454" class="st0" width="5.148" height="5.148"/>
				<rect x="36.976" y="78.454" class="st2" width="2.574" height="2.574"/>
				<rect x="39.55" y="78.454" class="st0" width="2.574" height="2.574"/>
				<rect x="36.976" y="81.028" class="st0" width="2.574" height="2.574"/>
				<rect x="39.55" y="81.028" class="st0" width="2.574" height="2.574"/>
			</g>
			<g style="clip-path:url(#SVGID_8_);">
				<rect x="36.976" y="83.602" class="st0" width="5.148" height="5.148"/>
				<rect x="36.976" y="83.602" class="st2" width="2.574" height="2.574"/>
				<rect x="39.55" y="83.602" class="st0" width="2.574" height="2.574"/>
				<rect x="36.976" y="86.176" class="st0" width="2.574" height="2.574"/>
				<rect x="39.55" y="86.176" class="st0" width="2.574" height="2.574"/>
			</g>
			<g style="clip-path:url(#SVGID_8_);">
				<rect x="36.976" y="88.75" class="st0" width="5.148" height="5.148"/>
				<rect x="36.976" y="88.75" class="st2" width="2.574" height="2.574"/>
				<rect x="39.55" y="88.75" class="st0" width="2.574" height="2.574"/>
				<rect x="36.976" y="91.324" class="st0" width="2.574" height="2.574"/>
				<rect x="39.55" y="91.324" class="st0" width="2.574" height="2.574"/>
			</g>
			<g style="clip-path:url(#SVGID_8_);">
				<rect x="31.828" y="21.826" class="st0" width="5.148" height="5.148"/>
				<rect x="31.828" y="21.826" class="st2" width="2.574" height="2.574"/>
				<rect x="34.402" y="21.826" class="st0" width="2.574" height="2.574"/>
				<rect x="31.828" y="24.4" class="st0" width="2.574" height="2.574"/>
				<rect x="34.402" y="24.4" class="st0" width="2.574" height="2.574"/>
			</g>
			<g style="clip-path:url(#SVGID_8_);">
				<rect x="31.828" y="26.974" class="st0" width="5.148" height="5.148"/>
				<rect x="31.828" y="26.974" class="st2" width="2.574" height="2.574"/>
				<rect x="34.402" y="26.974" class="st0" width="2.574" height="2.574"/>
				<rect x="31.828" y="29.548" class="st0" width="2.574" height="2.574"/>
				<rect x="34.402" y="29.548" class="st0" width="2.574" height="2.574"/>
			</g>
			<g style="clip-path:url(#SVGID_8_);">
				<rect x="31.828" y="32.122" class="st0" width="5.148" height="5.148"/>
				<rect x="31.828" y="32.122" class="st2" width="2.574" height="2.574"/>
				<rect x="34.402" y="32.122" class="st0" width="2.574" height="2.574"/>
				<rect x="31.828" y="34.696" class="st0" width="2.574" height="2.574"/>
				<rect x="34.402" y="34.696" class="st0" width="2.574" height="2.574"/>
			</g>
			<g style="clip-path:url(#SVGID_8_);">
				<rect x="31.828" y="37.27" class="st0" width="5.148" height="5.148"/>
				<rect x="31.828" y="37.27" class="st2" width="2.574" height="2.574"/>
				<rect x="34.402" y="37.27" class="st0" width="2.574" height="2.574"/>
				<rect x="31.828" y="39.844" class="st0" width="2.574" height="2.574"/>
				<rect x="34.402" y="39.844" class="st0" width="2.574" height="2.574"/>
			</g>
			<g style="clip-path:url(#SVGID_8_);">
				<rect x="31.828" y="42.418" class="st0" width="5.148" height="5.148"/>
				<rect x="31.828" y="42.418" class="st2" width="2.574" height="2.574"/>
				<rect x="34.402" y="42.418" class="st0" width="2.574" height="2.574"/>
				<rect x="31.828" y="44.992" class="st0" width="2.574" height="2.574"/>
				<rect x="34.402" y="44.992" class="st0" width="2.574" height="2.574"/>
			</g>
			<g style="clip-path:url(#SVGID_8_);">
				<rect x="31.828" y="47.566" class="st0" width="5.148" height="5.148"/>
				<rect x="31.828" y="47.566" class="st2" width="2.574" height="2.574"/>
				<rect x="34.402" y="47.566" class="st0" width="2.574" height="2.574"/>
				<rect x="31.828" y="50.14" class="st0" width="2.574" height="2.574"/>
				<rect x="34.402" y="50.14" class="st0" width="2.574" height="2.574"/>
			</g>
			<g style="clip-path:url(#SVGID_8_);">
				<rect x="31.828" y="52.714" class="st0" width="5.148" height="5.148"/>
				<rect x="31.828" y="52.714" class="st2" width="2.574" height="2.574"/>
				<rect x="34.402" y="52.714" class="st0" width="2.574" height="2.574"/>
				<rect x="31.828" y="55.288" class="st0" width="2.574" height="2.574"/>
				<rect x="34.402" y="55.288" class="st0" width="2.574" height="2.574"/>
			</g>
			<g style="clip-path:url(#SVGID_8_);">
				<rect x="31.828" y="57.862" class="st0" width="5.148" height="5.148"/>
				<rect x="31.828" y="57.862" class="st2" width="2.574" height="2.574"/>
				<rect x="34.402" y="57.862" class="st0" width="2.574" height="2.574"/>
				<rect x="31.828" y="60.436" class="st0" width="2.574" height="2.574"/>
				<rect x="34.402" y="60.436" class="st0" width="2.574" height="2.574"/>
			</g>
			<g style="clip-path:url(#SVGID_8_);">
				<rect x="31.828" y="63.01" class="st0" width="5.148" height="5.148"/>
				<rect x="31.828" y="63.01" class="st2" width="2.574" height="2.574"/>
				<rect x="34.402" y="63.01" class="st0" width="2.574" height="2.574"/>
				<rect x="31.828" y="65.584" class="st0" width="2.574" height="2.574"/>
				<rect x="34.402" y="65.584" class="st0" width="2.574" height="2.574"/>
			</g>
			<g style="clip-path:url(#SVGID_8_);">
				<rect x="31.828" y="68.158" class="st0" width="5.148" height="5.148"/>
				<rect x="31.828" y="68.158" class="st2" width="2.574" height="2.574"/>
				<rect x="34.402" y="68.158" class="st0" width="2.574" height="2.574"/>
				<rect x="31.828" y="70.732" class="st0" width="2.574" height="2.574"/>
				<rect x="34.402" y="70.732" class="st0" width="2.574" height="2.574"/>
			</g>
			<g style="clip-path:url(#SVGID_8_);">
				<rect x="31.828" y="73.306" class="st0" width="5.148" height="5.148"/>
				<rect x="31.828" y="73.306" class="st2" width="2.574" height="2.574"/>
				<rect x="34.402" y="73.306" class="st0" width="2.574" height="2.574"/>
				<rect x="31.828" y="75.88" class="st0" width="2.574" height="2.574"/>
				<rect x="34.402" y="75.88" class="st0" width="2.574" height="2.574"/>
			</g>
			<g style="clip-path:url(#SVGID_8_);">
				<rect x="31.828" y="78.454" class="st0" width="5.148" height="5.148"/>
				<rect x="31.828" y="78.454" class="st2" width="2.574" height="2.574"/>
				<rect x="34.402" y="78.454" class="st0" width="2.574" height="2.574"/>
				<rect x="31.828" y="81.028" class="st0" width="2.574" height="2.574"/>
				<rect x="34.402" y="81.028" class="st0" width="2.574" height="2.574"/>
			</g>
			<g style="clip-path:url(#SVGID_8_);">
				<rect x="31.828" y="83.602" class="st0" width="5.148" height="5.148"/>
				<rect x="31.828" y="83.602" class="st2" width="2.574" height="2.574"/>
				<rect x="34.402" y="83.602" class="st0" width="2.574" height="2.574"/>
				<rect x="31.828" y="86.176" class="st0" width="2.574" height="2.574"/>
				<rect x="34.402" y="86.176" class="st0" width="2.574" height="2.574"/>
			</g>
			<g style="clip-path:url(#SVGID_8_);">
				<rect x="31.828" y="88.75" class="st0" width="5.148" height="5.148"/>
				<rect x="31.828" y="88.75" class="st2" width="2.574" height="2.574"/>
				<rect x="34.402" y="88.75" class="st0" width="2.574" height="2.574"/>
				<rect x="31.828" y="91.324" class="st0" width="2.574" height="2.574"/>
				<rect x="34.402" y="91.324" class="st0" width="2.574" height="2.574"/>
			</g>
		</g>
	</g>
	<g>
		<g>
			<defs>
				<rect id="SVGID_36_" x="103.889" y="26.868" width="7.687" height="51.269"/>
			</defs>
			<clipPath id="SVGID_9_">
				<use xlink:href="#SVGID_36_"  style="overflow:visible;"/>
			</clipPath>
			<g style="clip-path:url(#SVGID_9_);">
				<rect x="108.912" y="21.826" class="st0" width="5.148" height="5.148"/>
				<rect x="108.912" y="21.826" class="st2" width="2.574" height="2.574"/>
				<rect x="111.486" y="21.826" class="st0" width="2.574" height="2.574"/>
				<rect x="108.912" y="24.4" class="st0" width="2.574" height="2.574"/>
				<rect x="111.486" y="24.4" class="st0" width="2.574" height="2.574"/>
			</g>
			<g style="clip-path:url(#SVGID_9_);">
				<rect x="108.912" y="26.974" class="st0" width="5.148" height="5.148"/>
				<rect x="108.912" y="26.974" class="st2" width="2.574" height="2.574"/>
				<rect x="111.486" y="26.974" class="st0" width="2.574" height="2.574"/>
				<rect x="108.912" y="29.548" class="st0" width="2.574" height="2.574"/>
				<rect x="111.486" y="29.548" class="st0" width="2.574" height="2.574"/>
			</g>
			<g style="clip-path:url(#SVGID_9_);">
				<rect x="108.912" y="32.122" class="st0" width="5.148" height="5.148"/>
				<rect x="108.912" y="32.122" class="st2" width="2.574" height="2.574"/>
				<rect x="111.486" y="32.122" class="st0" width="2.574" height="2.574"/>
				<rect x="108.912" y="34.696" class="st0" width="2.574" height="2.574"/>
				<rect x="111.486" y="34.696" class="st0" width="2.574" height="2.574"/>
			</g>
			<g style="clip-path:url(#SVGID_9_);">
				<rect x="108.912" y="37.27" class="st0" width="5.148" height="5.148"/>
				<rect x="108.912" y="37.27" class="st2" width="2.574" height="2.574"/>
				<rect x="111.486" y="37.27" class="st0" width="2.574" height="2.574"/>
				<rect x="108.912" y="39.844" class="st0" width="2.574" height="2.574"/>
				<rect x="111.486" y="39.844" class="st0" width="2.574" height="2.574"/>
			</g>
			<g style="clip-path:url(#SVGID_9_);">
				<rect x="108.912" y="42.418" class="st0" width="5.148" height="5.148"/>
				<rect x="108.912" y="42.418" class="st2" width="2.574" height="2.574"/>
				<rect x="111.486" y="42.418" class="st0" width="2.574" height="2.574"/>
				<rect x="108.912" y="44.992" class="st0" width="2.574" height="2.574"/>
				<rect x="111.486" y="44.992" class="st0" width="2.574" height="2.574"/>
			</g>
			<g style="clip-path:url(#SVGID_9_);">
				<rect x="108.912" y="47.566" class="st0" width="5.148" height="5.148"/>
				<rect x="108.912" y="47.566" class="st2" width="2.574" height="2.574"/>
				<rect x="111.486" y="47.566" class="st0" width="2.574" height="2.574"/>
				<rect x="108.912" y="50.14" class="st0" width="2.574" height="2.574"/>
				<rect x="111.486" y="50.14" class="st0" width="2.574" height="2.574"/>
			</g>
			<g style="clip-path:url(#SVGID_9_);">
				<rect x="108.912" y="52.714" class="st0" width="5.148" height="5.148"/>
				<rect x="108.912" y="52.714" class="st2" width="2.574" height="2.574"/>
				<rect x="111.486" y="52.714" class="st0" width="2.574" height="2.574"/>
				<rect x="108.912" y="55.288" class="st0" width="2.574" height="2.574"/>
				<rect x="111.486" y="55.288" class="st0" width="2.574" height="2.574"/>
			</g>
			<g style="clip-path:url(#SVGID_9_);">
				<rect x="108.912" y="57.862" class="st0" width="5.148" height="5.148"/>
				<rect x="108.912" y="57.862" class="st2" width="2.574" height="2.574"/>
				<rect x="111.486" y="57.862" class="st0" width="2.574" height="2.574"/>
				<rect x="108.912" y="60.436" class="st0" width="2.574" height="2.574"/>
				<rect x="111.486" y="60.436" class="st0" width="2.574" height="2.574"/>
			</g>
			<g style="clip-path:url(#SVGID_9_);">
				<rect x="108.912" y="63.01" class="st0" width="5.148" height="5.148"/>
				<rect x="108.912" y="63.01" class="st2" width="2.574" height="2.574"/>
				<rect x="111.486" y="63.01" class="st0" width="2.574" height="2.574"/>
				<rect x="108.912" y="65.584" class="st0" width="2.574" height="2.574"/>
				<rect x="111.486" y="65.584" class="st0" width="2.574" height="2.574"/>
			</g>
			<g style="clip-path:url(#SVGID_9_);">
				<rect x="108.912" y="68.158" class="st0" width="5.148" height="5.148"/>
				<rect x="108.912" y="68.158" class="st2" width="2.574" height="2.574"/>
				<rect x="111.486" y="68.158" class="st0" width="2.574" height="2.574"/>
				<rect x="108.912" y="70.732" class="st0" width="2.574" height="2.574"/>
				<rect x="111.486" y="70.732" class="st0" width="2.574" height="2.574"/>
			</g>
			<g style="clip-path:url(#SVGID_9_);">
				<rect x="108.912" y="73.306" class="st0" width="5.148" height="5.148"/>
				<rect x="108.912" y="73.306" class="st2" width="2.574" height="2.574"/>
				<rect x="111.486" y="73.306" class="st0" width="2.574" height="2.574"/>
				<rect x="108.912" y="75.88" class="st0" width="2.574" height="2.574"/>
				<rect x="111.486" y="75.88" class="st0" width="2.574" height="2.574"/>
			</g>
			<g style="clip-path:url(#SVGID_9_);">
				<rect x="103.764" y="21.826" class="st0" width="5.148" height="5.148"/>
				<rect x="103.764" y="21.826" class="st2" width="2.574" height="2.574"/>
				<rect x="106.338" y="21.826" class="st0" width="2.574" height="2.574"/>
				<rect x="103.764" y="24.4" class="st0" width="2.574" height="2.574"/>
				<rect x="106.338" y="24.4" class="st0" width="2.574" height="2.574"/>
			</g>
			<g style="clip-path:url(#SVGID_9_);">
				<rect x="103.764" y="26.974" class="st0" width="5.148" height="5.148"/>
				<rect x="103.764" y="26.974" class="st2" width="2.574" height="2.574"/>
				<rect x="106.338" y="26.974" class="st0" width="2.574" height="2.574"/>
				<rect x="103.764" y="29.548" class="st0" width="2.574" height="2.574"/>
				<rect x="106.338" y="29.548" class="st0" width="2.574" height="2.574"/>
			</g>
			<g style="clip-path:url(#SVGID_9_);">
				<rect x="103.764" y="32.122" class="st0" width="5.148" height="5.148"/>
				<rect x="103.764" y="32.122" class="st2" width="2.574" height="2.574"/>
				<rect x="106.338" y="32.122" class="st0" width="2.574" height="2.574"/>
				<rect x="103.764" y="34.696" class="st0" width="2.574" height="2.574"/>
				<rect x="106.338" y="34.696" class="st0" width="2.574" height="2.574"/>
			</g>
			<g style="clip-path:url(#SVGID_9_);">
				<rect x="103.764" y="37.27" class="st0" width="5.148" height="5.148"/>
				<rect x="103.764" y="37.27" class="st2" width="2.574" height="2.574"/>
				<rect x="106.338" y="37.27" class="st0" width="2.574" height="2.574"/>
				<rect x="103.764" y="39.844" class="st0" width="2.574" height="2.574"/>
				<rect x="106.338" y="39.844" class="st0" width="2.574" height="2.574"/>
			</g>
			<g style="clip-path:url(#SVGID_9_);">
				<rect x="103.764" y="42.418" class="st0" width="5.148" height="5.148"/>
				<rect x="103.764" y="42.418" class="st2" width="2.574" height="2.574"/>
				<rect x="106.338" y="42.418" class="st0" width="2.574" height="2.574"/>
				<rect x="103.764" y="44.992" class="st0" width="2.574" height="2.574"/>
				<rect x="106.338" y="44.992" class="st0" width="2.574" height="2.574"/>
			</g>
			<g style="clip-path:url(#SVGID_9_);">
				<rect x="103.764" y="47.566" class="st0" width="5.148" height="5.148"/>
				<rect x="103.764" y="47.566" class="st2" width="2.574" height="2.574"/>
				<rect x="106.338" y="47.566" class="st0" width="2.574" height="2.574"/>
				<rect x="103.764" y="50.14" class="st0" width="2.574" height="2.574"/>
				<rect x="106.338" y="50.14" class="st0" width="2.574" height="2.574"/>
			</g>
			<g style="clip-path:url(#SVGID_9_);">
				<rect x="103.764" y="52.714" class="st0" width="5.148" height="5.148"/>
				<rect x="103.764" y="52.714" class="st2" width="2.574" height="2.574"/>
				<rect x="106.338" y="52.714" class="st0" width="2.574" height="2.574"/>
				<rect x="103.764" y="55.288" class="st0" width="2.574" height="2.574"/>
				<rect x="106.338" y="55.288" class="st0" width="2.574" height="2.574"/>
			</g>
			<g style="clip-path:url(#SVGID_9_);">
				<rect x="103.764" y="57.862" class="st0" width="5.148" height="5.148"/>
				<rect x="103.764" y="57.862" class="st2" width="2.574" height="2.574"/>
				<rect x="106.338" y="57.862" class="st0" width="2.574" height="2.574"/>
				<rect x="103.764" y="60.436" class="st0" width="2.574" height="2.574"/>
				<rect x="106.338" y="60.436" class="st0" width="2.574" height="2.574"/>
			</g>
			<g style="clip-path:url(#SVGID_9_);">
				<rect x="103.764" y="63.01" class="st0" width="5.148" height="5.148"/>
				<rect x="103.764" y="63.01" class="st2" width="2.574" height="2.574"/>
				<rect x="106.338" y="63.01" class="st0" width="2.574" height="2.574"/>
				<rect x="103.764" y="65.584" class="st0" width="2.574" height="2.574"/>
				<rect x="106.338" y="65.584" class="st0" width="2.574" height="2.574"/>
			</g>
			<g style="clip-path:url(#SVGID_9_);">
				<rect x="103.764" y="68.158" class="st0" width="5.148" height="5.148"/>
				<rect x="103.764" y="68.158" class="st2" width="2.574" height="2.574"/>
				<rect x="106.338" y="68.158" class="st0" width="2.574" height="2.574"/>
				<rect x="103.764" y="70.732" class="st0" width="2.574" height="2.574"/>
				<rect x="106.338" y="70.732" class="st0" width="2.574" height="2.574"/>
			</g>
			<g style="clip-path:url(#SVGID_9_);">
				<rect x="103.764" y="73.306" class="st0" width="5.148" height="5.148"/>
				<rect x="103.764" y="73.306" class="st2" width="2.574" height="2.574"/>
				<rect x="106.338" y="73.306" class="st0" width="2.574" height="2.574"/>
				<rect x="103.764" y="75.88" class="st0" width="2.574" height="2.574"/>
				<rect x="106.338" y="75.88" class="st0" width="2.574" height="2.574"/>
			</g>
		</g>
	</g>
	<g>
		<g>
			<defs>
				<rect id="SVGID_38_" x="67.899" y="26.868" width="7.687" height="40.746"/>
			</defs>
			<clipPath id="SVGID_11_">
				<use xlink:href="#SVGID_38_"  style="overflow:visible;"/>
			</clipPath>
			<g style="clip-path:url(#SVGID_11_);">
				<rect x="72.921" y="21.826" class="st0" width="5.148" height="5.148"/>
				<rect x="72.921" y="21.826" class="st2" width="2.574" height="2.574"/>
				<rect x="75.495" y="21.826" class="st0" width="2.574" height="2.574"/>
				<rect x="72.921" y="24.4" class="st0" width="2.574" height="2.574"/>
				<rect x="75.495" y="24.4" class="st0" width="2.574" height="2.574"/>
			</g>
			<g style="clip-path:url(#SVGID_11_);">
				<rect x="72.921" y="26.974" class="st0" width="5.148" height="5.148"/>
				<rect x="72.921" y="26.974" class="st2" width="2.574" height="2.574"/>
				<rect x="75.495" y="26.974" class="st0" width="2.574" height="2.574"/>
				<rect x="72.921" y="29.548" class="st0" width="2.574" height="2.574"/>
				<rect x="75.495" y="29.548" class="st0" width="2.574" height="2.574"/>
			</g>
			<g style="clip-path:url(#SVGID_11_);">
				<rect x="72.921" y="32.122" class="st0" width="5.148" height="5.148"/>
				<rect x="72.921" y="32.122" class="st2" width="2.574" height="2.574"/>
				<rect x="75.495" y="32.122" class="st0" width="2.574" height="2.574"/>
				<rect x="72.921" y="34.696" class="st0" width="2.574" height="2.574"/>
				<rect x="75.495" y="34.696" class="st0" width="2.574" height="2.574"/>
			</g>
			<g style="clip-path:url(#SVGID_11_);">
				<rect x="72.921" y="37.27" class="st0" width="5.148" height="5.148"/>
				<rect x="72.921" y="37.27" class="st2" width="2.574" height="2.574"/>
				<rect x="75.495" y="37.27" class="st0" width="2.574" height="2.574"/>
				<rect x="72.921" y="39.844" class="st0" width="2.574" height="2.574"/>
				<rect x="75.495" y="39.844" class="st0" width="2.574" height="2.574"/>
			</g>
			<g style="clip-path:url(#SVGID_11_);">
				<rect x="72.921" y="42.418" class="st0" width="5.148" height="5.148"/>
				<rect x="72.921" y="42.418" class="st2" width="2.574" height="2.574"/>
				<rect x="75.495" y="42.418" class="st0" width="2.574" height="2.574"/>
				<rect x="72.921" y="44.992" class="st0" width="2.574" height="2.574"/>
				<rect x="75.495" y="44.992" class="st0" width="2.574" height="2.574"/>
			</g>
			<g style="clip-path:url(#SVGID_11_);">
				<rect x="72.921" y="47.566" class="st0" width="5.148" height="5.148"/>
				<rect x="72.921" y="47.566" class="st2" width="2.574" height="2.574"/>
				<rect x="75.495" y="47.566" class="st0" width="2.574" height="2.574"/>
				<rect x="72.921" y="50.14" class="st0" width="2.574" height="2.574"/>
				<rect x="75.495" y="50.14" class="st0" width="2.574" height="2.574"/>
			</g>
			<g style="clip-path:url(#SVGID_11_);">
				<rect x="72.921" y="52.714" class="st0" width="5.148" height="5.148"/>
				<rect x="72.921" y="52.714" class="st2" width="2.574" height="2.574"/>
				<rect x="75.495" y="52.714" class="st0" width="2.574" height="2.574"/>
				<rect x="72.921" y="55.288" class="st0" width="2.574" height="2.574"/>
				<rect x="75.495" y="55.288" class="st0" width="2.574" height="2.574"/>
			</g>
			<g style="clip-path:url(#SVGID_11_);">
				<rect x="72.921" y="57.862" class="st0" width="5.148" height="5.148"/>
				<rect x="72.921" y="57.862" class="st2" width="2.574" height="2.574"/>
				<rect x="75.495" y="57.862" class="st0" width="2.574" height="2.574"/>
				<rect x="72.921" y="60.436" class="st0" width="2.574" height="2.574"/>
				<rect x="75.495" y="60.436" class="st0" width="2.574" height="2.574"/>
			</g>
			<g style="clip-path:url(#SVGID_11_);">
				<rect x="72.921" y="63.01" class="st0" width="5.148" height="5.148"/>
				<rect x="72.921" y="63.01" class="st2" width="2.574" height="2.574"/>
				<rect x="75.495" y="63.01" class="st0" width="2.574" height="2.574"/>
				<rect x="72.921" y="65.584" class="st0" width="2.574" height="2.574"/>
				<rect x="75.495" y="65.584" class="st0" width="2.574" height="2.574"/>
			</g>
			<g style="clip-path:url(#SVGID_11_);">
				<rect x="67.773" y="21.826" class="st0" width="5.148" height="5.148"/>
				<rect x="67.773" y="21.826" class="st2" width="2.574" height="2.574"/>
				<rect x="70.347" y="21.826" class="st0" width="2.574" height="2.574"/>
				<rect x="67.773" y="24.4" class="st0" width="2.574" height="2.574"/>
				<rect x="70.347" y="24.4" class="st0" width="2.574" height="2.574"/>
			</g>
			<g style="clip-path:url(#SVGID_11_);">
				<rect x="67.773" y="26.974" class="st0" width="5.148" height="5.148"/>
				<rect x="67.773" y="26.974" class="st2" width="2.574" height="2.574"/>
				<rect x="70.347" y="26.974" class="st0" width="2.574" height="2.574"/>
				<rect x="67.773" y="29.548" class="st0" width="2.574" height="2.574"/>
				<rect x="70.347" y="29.548" class="st0" width="2.574" height="2.574"/>
			</g>
			<g style="clip-path:url(#SVGID_11_);">
				<rect x="67.773" y="32.122" class="st0" width="5.148" height="5.148"/>
				<rect x="67.773" y="32.122" class="st2" width="2.574" height="2.574"/>
				<rect x="70.347" y="32.122" class="st0" width="2.574" height="2.574"/>
				<rect x="67.773" y="34.696" class="st0" width="2.574" height="2.574"/>
				<rect x="70.347" y="34.696" class="st0" width="2.574" height="2.574"/>
			</g>
			<g style="clip-path:url(#SVGID_11_);">
				<rect x="67.773" y="37.27" class="st0" width="5.148" height="5.148"/>
				<rect x="67.773" y="37.27" class="st2" width="2.574" height="2.574"/>
				<rect x="70.347" y="37.27" class="st0" width="2.574" height="2.574"/>
				<rect x="67.773" y="39.844" class="st0" width="2.574" height="2.574"/>
				<rect x="70.347" y="39.844" class="st0" width="2.574" height="2.574"/>
			</g>
			<g style="clip-path:url(#SVGID_11_);">
				<rect x="67.773" y="42.418" class="st0" width="5.148" height="5.148"/>
				<rect x="67.773" y="42.418" class="st2" width="2.574" height="2.574"/>
				<rect x="70.347" y="42.418" class="st0" width="2.574" height="2.574"/>
				<rect x="67.773" y="44.992" class="st0" width="2.574" height="2.574"/>
				<rect x="70.347" y="44.992" class="st0" width="2.574" height="2.574"/>
			</g>
			<g style="clip-path:url(#SVGID_11_);">
				<rect x="67.773" y="47.566" class="st0" width="5.148" height="5.148"/>
				<rect x="67.773" y="47.566" class="st2" width="2.574" height="2.574"/>
				<rect x="70.347" y="47.566" class="st0" width="2.574" height="2.574"/>
				<rect x="67.773" y="50.14" class="st0" width="2.574" height="2.574"/>
				<rect x="70.347" y="50.14" class="st0" width="2.574" height="2.574"/>
			</g>
			<g style="clip-path:url(#SVGID_11_);">
				<rect x="67.773" y="52.714" class="st0" width="5.148" height="5.148"/>
				<rect x="67.773" y="52.714" class="st2" width="2.574" height="2.574"/>
				<rect x="70.347" y="52.714" class="st0" width="2.574" height="2.574"/>
				<rect x="67.773" y="55.288" class="st0" width="2.574" height="2.574"/>
				<rect x="70.347" y="55.288" class="st0" width="2.574" height="2.574"/>
			</g>
			<g style="clip-path:url(#SVGID_11_);">
				<rect x="67.773" y="57.862" class="st0" width="5.148" height="5.148"/>
				<rect x="67.773" y="57.862" class="st2" width="2.574" height="2.574"/>
				<rect x="70.347" y="57.862" class="st0" width="2.574" height="2.574"/>
				<rect x="67.773" y="60.436" class="st0" width="2.574" height="2.574"/>
				<rect x="70.347" y="60.436" class="st0" width="2.574" height="2.574"/>
			</g>
			<g style="clip-path:url(#SVGID_11_);">
				<rect x="67.773" y="63.01" class="st0" width="5.148" height="5.148"/>
				<rect x="67.773" y="63.01" class="st2" width="2.574" height="2.574"/>
				<rect x="70.347" y="63.01" class="st0" width="2.574" height="2.574"/>
				<rect x="67.773" y="65.584" class="st0" width="2.574" height="2.574"/>
				<rect x="70.347" y="65.584" class="st0" width="2.574" height="2.574"/>
			</g>
		</g>
	</g>
</g>
</svg>
